# Made in Blockbench 5.1.4
mtllib Logo.mtl

o circle
v 0 0 0.09217617068528056
v 2.591854621391415 0 0.09217617068528056
v 2.335180075293915 0 0.7792677737008151
v 1.6159949242794467 0 1.3302720574267235
v 0.5767417986996063 0 1.6360565303266956
v 2.575789494803933 0 -1.185933125
v 0.5767417986996063 -1.8125 1.6360565303266956
v 1.6159949242794467 -1.8125 1.3302720574267235
v 2.335180075293915 -1.8125 0.7792677737008151
v 2.591854621391415 -1.8125 0.09217617068528056
v 2.575789494803933 -1.8125 -1.185933125
v 0.5767417986996063 -0.5625 1.8125
v 1.6813289900054145 -0.5625 1.4674003931874222
v 0.6420765863888398 -0.5625 1.7731848660873943
v 2.482207172382457 -0.5625 0.8944588928770321
v 1.7630212994047232 -0.5625 1.4454636177116145
v 2.7921525 -0.5625 0.18051656375528816
v 2.5354779539025003 -0.5625 0.8676077256621485
v 2.575789494803933 3.4375 -1.185933125
v 3.450789494803933 0 -1.185933125
v 3.450789494803933 3.4375 -1.185933125
v 2.641235 -0.425648125 0.6316587499999999
v 2.445074375 0.05064812499999999 0.5401875
v 2.233765 0.05064812499999999 0.9933412500000001
v 2.429925625 -0.425648125 1.0848125
v 1.889218125 -0.425648125 1.37116625
v 1.757458125 0.05064812499999999 1.199453125
v 1.360781875 0.05064812499999999 1.50383375
v 1.492541875 -0.425648125 1.675546875
v 0.831990625 -0.425648125 1.7898275
v 0.775971875 0.05064812499999999 1.580763125
v 0.349028125 -0.425648125 1.919236875
v 0.293009375 0.05064812499999999 1.7101725
v 3.125 0.0625 -0.7499999999999996
v 3.125 3.6875 -0.7500000000000004
v 5.625 0.0625 -0.7499999999999996
v 5.625 3.6875 -0.7500000000000004
v 0.625 0.0625 -0.7499999999999996
v 0.625 3.6875 -0.7500000000000004
v 3.125 0.0625 -0.7499999999999996
v 3.125 3.6875 -0.7500000000000004
v -2.591854621391415 0 0.09217617068528056
v -2.335180075293915 0 0.7792677737008151
v -1.6159949242794467 0 1.3302720574267235
v -0.5767417986996063 0 1.6360565303266956
v -2.575789494803933 0 -1.185933125
v -0.5767417986996063 -1.8125 1.6360565303266956
v -1.6159949242794467 -1.8125 1.3302720574267235
v -2.335180075293915 -1.8125 0.7792677737008151
v -2.591854621391415 -1.8125 0.09217617068528056
v -2.575789494803933 -1.8125 -1.185933125
v -0.5767417986996063 -0.5625 1.8125
v -1.6813289900054145 -0.5625 1.4674003931874222
v -0.6420765863888398 -0.5625 1.7731848660873943
v -2.482207172382457 -0.5625 0.8944588928770321
v -1.7630212994047232 -0.5625 1.4454636177116145
v -2.7921525 -0.5625 0.18051656375528816
v -2.5354779539025003 -0.5625 0.8676077256621485
v -2.575789494803933 3.4375 -1.185933125
v -3.450789494803933 0 -1.185933125
v -3.450789494803933 3.4375 -1.185933125
v -2.641235 -0.425648125 0.6316587499999999
v -2.445074375 0.05064812499999999 0.5401875
v -2.233765 0.05064812499999999 0.9933412500000001
v -2.429925625 -0.425648125 1.0848125
v -1.889218125 -0.425648125 1.37116625
v -1.757458125 0.05064812499999999 1.199453125
v -1.360781875 0.05064812499999999 1.50383375
v -1.492541875 -0.425648125 1.675546875
v -0.831990625 -0.425648125 1.7898275
v -0.775971875 0.05064812499999999 1.580763125
v -0.349028125 -0.425648125 1.919236875
v -0.293009375 0.05064812499999999 1.7101725
v -3.125 0.0625 -0.7499999999999996
v -3.125 3.6875 -0.7500000000000004
v -5.625 0.0625 -0.7499999999999996
v -5.625 3.6875 -0.7500000000000004
v -0.625 0.0625 -0.7499999999999996
v -0.625 3.6875 -0.7500000000000004
vt 0.6954930492333427 0.6389478446747163
vt 0.8063445829838286 0.6389478446747163
vt 0.7509188161085856 0.8364756174504728
vt 0.484375 1
vt 0.484375 0.630859375
vt 0.5 0.630859375
vt 0.5 1
vt 0.31526036887254166 0.16119405203038528
vt 0.40397031298005337 0.16119626952416022
vt 0.4041207023948758 0.004493849982899811
vt 0.31540683709876594 0.004493849982899922
vt 0.9753331844737363 0.7485674623988047
vt 1 0.8364756174504728
vt 0.7509188161085856 0.8364756174504728
vt 0.9062183940941576 0.6780706468427347
vt 0.9753331844737363 0.7485674623988047
vt 0.7509188161085856 0.8364756174504728
vt 0.8063445829838286 0.6389478446747163
vt 0.9062183940941576 0.6780706468427347
vt 0.7509188161085856 0.8364756174504728
vt 0.5 0.630859375
vt 0.484375 0.630859375
vt 0.484375 1
vt 0.5 1
vt 0.5 0.630859375
vt 0.484375 0.630859375
vt 0.484375 1
vt 0.5 1
vt 0.5 0.630859375
vt 0.484375 0.630859375
vt 0.484375 1
vt 0.5 1
vt 0.5 0.630859375
vt 0.484375 0.630859375
vt 0.484375 1
vt 0.5 1
vt 0.40418631632492574 0.16229778425518893
vt 0.40418750000000003 0.004174266545289518
vt 0.314409375 0.00390625
vt 0.3144094617777664 0.16203675714134513
vt 0.40418631632492574 0.16229778425518893
vt 0.40418750000000003 0.004174266545289518
vt 0.314409375 0.00390625
vt 0.3144094617777664 0.16203675714134513
vt 0.40418631632492574 0.16229778425518893
vt 0.40418750000000003 0.004174266545289518
vt 0.314409375 0.00390625
vt 0.3144094617777664 0.16203675714134513
vt 0.9984561168220047 1
vt 0.5033815153951664 1
vt 0.5018376322171711 0.8364756174504728
vt 1 0.8364756174504728
vt 0.31445312499999994 0.7509097284761816
vt 0 0.7509097284761815
vt 7.149836278586007e-17 0.2080746465238179
vt 0.3144531250000001 0.20807464652381813
vt 0.31445312499999994 0.7509097284761816
vt 0.31445312499999994 0.8826254323039329
vt 0 0.8826254323039328
vt 0 0.7509097284761815
vt 0.474609375 0.88671875
vt 0.474609375 0.994140625
vt 0.3671875 0.994140625
vt 0.3671875 0.88671875
vt 0.36328125 0.888671875
vt 0.36328125 0.99609375
vt 0.255859375 0.99609375
vt 0.255859375 0.888671875
vt 0.48046875 0.6484375
vt 0.48046875 0.755859375
vt 0.373046875 0.755859375
vt 0.373046875 0.6484375
vt 0.5468749999999997 0.6306640625
vt 0.5468749999999997 0.36503906249999996
vt 0.9765624999999996 0.36503906249999996
vt 0.9765624999999996 0.6306640625
vt 0.5468749999999997 0.36503906249999996
vt 0.5468749999999997 0.6306640625
vt 0.9765624999999996 0.6306640625
vt 0.9765624999999996 0.36503906249999996
vt 0.5018376322171711 0.8364756174504728
vt 0.5265044477434351 0.7485674623988047
vt 0.7509188161085856 0.8364756174504728
vt 0.5265044477434351 0.7485674623988047
vt 0.5956192381230137 0.6780706468427347
vt 0.7509188161085856 0.8364756174504728
vt 0.5956192381230137 0.6780706468427347
vt 0.6954930492333427 0.6389478446747163
vt 0.7509188161085856 0.8364756174504728
vt 0.484375 1
vt 0.484375 0.630859375
vt 0.5 0.630859375
vt 0.5 1
vt 0.484375 1
vt 0.484375 0.630859375
vt 0.5 0.630859375
vt 0.5 1
vt 0.484375 1
vt 0.484375 0.630859375
vt 0.5 0.630859375
vt 0.5 1
vt 0.484375 1
vt 0.484375 0.630859375
vt 0.5 0.630859375
vt 0.5 1
vt 0.314409375 0.00390625
vt 0.40418750000000003 0.004174266545289518
vt 0.40418631632492574 0.16229778425518893
vt 0.3144094617777664 0.16203675714134513
vt 0.314409375 0.00390625
vt 0.40418750000000003 0.004174266545289518
vt 0.40418631632492574 0.16229778425518893
vt 0.3144094617777664 0.16203675714134513
vt 0.314409375 0.00390625
vt 0.40418750000000003 0.004174266545289518
vt 0.40418631632492574 0.16229778425518893
vt 0.3144094617777664 0.16203675714134513
vt 0 0.8826254323039328
vt 0.31445312499999994 0.8826254323039329
vt 0.31445312499999994 0.7509097284761816
vt 0 0.7509097284761815
vt 0.3671875 0.994140625
vt 0.474609375 0.994140625
vt 0.474609375 0.88671875
vt 0.3671875 0.88671875
vt 0.255859375 0.99609375
vt 0.36328125 0.99609375
vt 0.36328125 0.888671875
vt 0.255859375 0.888671875
vt 0.373046875 0.755859375
vt 0.48046875 0.755859375
vt 0.48046875 0.6484375
vt 0.373046875 0.6484375
vt 0.9765624999999996 0.36503906249999996
vt 0.5468749999999997 0.36503906249999996
vt 0.5468749999999997 0.6306640625
vt 0.9765624999999996 0.6306640625
vt 0.9765624999999996 0.6306640625
vt 0.5468749999999997 0.6306640625
vt 0.5468749999999997 0.36503906249999996
vt 0.9765624999999996 0.36503906249999996
vn 0 1 0
vn 0 0 1
vn 0 0.29929819534789814 0.9541596251474338
vn 0 1 0
vn 0 1 0
vn 0 1 0
vn 0.2822697948408347 0 0.9593350629058198
vn 0.6081736091875081 0 0.7938040445146651
vn 0.9367698626197429 0 0.34994603082102244
vn 0.9999210138648287 0 -0.012568453824294383
vn 0.27273985390461886 0.2576528012599331 0.9269455248799665
vn 0.5789824968385655 0.30609140065267554 0.7557031975591105
vn 0.8731800212231963 0.3621546028002649 0.32619119271868935
vn 0 1 0
vn 0 0 1
vn 0 0 1
vn 0.8251104917822272 0.41370952126373717 0.3847559075136088
vn 0.5542219962349295 0.41370994039325426 0.7222756150592237
vn 0.23563109489841166 0.4137096415591699 0.8793874684108017
vn 0 2.4501473646900006e-16 1
vn 0 2.4501473646900006e-16 1
vn 0 1 0
vn 0 1 0
vn 0 1 0
vn -0.2822697948408347 0 0.9593350629058198
vn -0.6081736091875081 0 0.7938040445146651
vn -0.9367698626197429 0 0.34994603082102244
vn -0.9999210138648287 0 -0.012568453824294383
vn -0.27273985390461875 0.2576528012599331 0.9269455248799665
vn -0.5789824968385655 0.30609140065267554 0.7557031975591105
vn -0.8731800212231963 0.36215460280026485 0.32619119271868935
vn 0 0 1
vn -0.8251104917822272 0.41370952126373717 0.3847559075136088
vn -0.5542219962349295 0.4137099403932543 0.7222756150592237
vn -0.23563109489841166 0.4137096415591699 0.8793874684108017
vn 0 2.4501473646900006e-16 1
vn 0 2.4501473646900006e-16 1
usemtl m_2957c23c-d15a-c604-9e62-688d7ffcfe1f
f 45/1/1 5/2/1 1/3/1
f 45/4/2 47/5/2 7/6/2 5/7/2
f 45/8/3 52/9/3 12/10/3 5/11/3
f 3/12/4 2/13/4 1/14/4
f 4/15/5 3/16/5 1/17/5
f 5/18/6 4/19/6 1/20/6
f 7/21/7 8/22/7 4/23/7 5/24/7
f 8/25/8 9/26/8 3/27/8 4/28/8
f 9/29/9 10/30/9 2/31/9 3/32/9
f 10/33/10 11/34/10 6/35/10 2/36/10
f 14/37/11 13/38/11 4/39/11 5/40/11
f 16/41/12 15/42/12 3/43/12 4/44/12
f 18/45/13 17/46/13 2/47/13 3/48/13
f 6/49/14 46/50/14 42/51/14 2/52/14
f 6/53/15 19/54/15 59/55/15 46/56/15
f 6/57/16 20/58/16 21/59/16 19/60/16
f 22/61/17 23/62/17 24/63/17 25/64/17
f 26/65/18 27/66/18 28/67/18 29/68/18
f 30/69/19 31/70/19 33/71/19 32/72/19
f 37/73/20 35/74/20 34/75/20 36/76/20
f 41/77/21 39/78/21 38/79/21 40/80/21
f 42/81/22 43/82/22 1/83/22
f 43/84/23 44/85/23 1/86/23
f 44/87/24 45/88/24 1/89/24
f 44/90/25 48/91/25 47/92/25 45/93/25
f 43/94/26 49/95/26 48/96/26 44/97/26
f 42/98/27 50/99/27 49/100/27 43/101/27
f 46/102/28 51/103/28 50/104/28 42/105/28
f 44/106/29 53/107/29 54/108/29 45/109/29
f 43/110/30 55/111/30 56/112/30 44/113/30
f 42/114/31 57/115/31 58/116/31 43/117/31
f 61/118/32 60/119/32 46/120/32 59/121/32
f 64/122/33 63/123/33 62/124/33 65/125/33
f 68/126/34 67/127/34 66/128/34 69/129/34
f 73/130/35 71/131/35 70/132/35 72/133/35
f 74/134/36 75/135/36 77/136/36 76/137/36
f 78/138/37 79/139/37 75/140/37 74/141/37
o Logo
v 1.3125 0.8125 -0.9375
v 1.3125 2.4375 -0.9375
v -1.3125 0.8125 -0.9375
v -1.3125 2.4375 -0.9375
vt 1 0
vt 1 0.3644531249999998
vt 0.40410156249999996 0.3644531249999998
vt 0.40410156249999996 0
vn 0 0 1
usemtl m_2957c23c-d15a-c604-9e62-688d7ffcfe1f
f 80/142/38 81/143/38 83/144/38 82/145/38
o Mic
v 0.46511454893701376 0.2088045615145583 0.176371875
v -0.858923785516706 0.20804212904552327 0.498245
v -0.8534557959873248 0.1799117615528615 0.6875
v -0.8430059028442841 0.1261517218173709 0.67068375
v -0.83397026212385 0.07966738006219642 0.638545625
v -0.8271518219296912 0.04458954617868377 0.59394125
v -0.8231565200777505 0.02403549999126897 0.54083375
v -0.8223392612994284 0.019831068061164747 0.4839425
v -0.8247726722685899 0.03234988223507074 0.42832125
v -0.8302406617979712 0.06048024972773247 0.37891375
v -0.8382571439718504 0.10172147528931713 0.34010874999999996
v -0.8481100434706067 0.15241024897459587 0.31535562500000003
v -0.858923785516706 0.20804212904552327 0.3068525
v -0.8697375275628053 0.26367400911645067 0.31535562500000003
v -0.8795904270615617 0.3143627828017294 0.34010874999999996
v -0.8876069092354408 0.3556040083633141 0.37891375
v -0.8930748987648222 0.3837343758559758 0.42832125
v -0.8955083097339837 0.3962531900298818 0.4839425
v -0.8946910509556615 0.3920487580997776 0.54083375
v -0.8906957491037208 0.3714947119123628 0.59394125
v -0.8838773089095621 0.3364168780288501 0.638545625
v -0.8748416681891279 0.28993253627367566 0.67068375
v -0.8643917750460872 0.23617249653818503 0.6875
v 0.26815758051520294 0.29238717322958807 0.7730131250000001
v 0.2515898739579018 0.37762063453436945 0.7997468750000001
v 0.2342517760817678 0.46681741559232076 0.7997468750000001
v 0.21768406952446662 0.5520508768971021 0.7730131250000001
v 0.2033587264297062 0.6257483782454045 0.72192125
v 0.19254856205227014 0.6813618528066423 0.65101
v 0.18621429968387943 0.7139488077121565 0.566581875
v 0.18491858734965055 0.7206146698047557 0.4761375
v 0.18877662598054218 0.7007667816724337 0.387713125
v 0.19744567491860918 0.6561683911434579 0.30916625
v 0.21015534284501872 0.5907828179709986 0.24747562499999998
v 0.225776398274008 0.5104194545300971 0.20812312500000002
v 0.24292082501983478 0.42221902506334513 0.194605625
v 0.26006525176566153 0.3340185955965932 0.20812312500000002
v 0.2756863071946508 0.2536552321556915 0.24747562499999998
v 0.28839597512106036 0.1882696589832323 0.30916625
v 0.2970650240591274 0.14367126845425668 0.387713125
v 0.300923062690019 0.12382338032193457 0.4761375
v 0.29962735035579013 0.13048924241453388 0.566581875
v 0.2932930879873994 0.16307619732004805 0.65101
v 0.28248292360996335 0.21868967188128577 0.72192125
v 0.37493959277965255 0.39494326089913145 0.843245625
v 0.2676444798041642 0.2785640492778422 0.8010349999999999
v 0.24938710787616644 0.37248025877034147 0.8304925000000001
v 0.3938925999902991 0.29745159364654616 0.81266125
v 0.2834357316613157 0.19735130533425588 0.744731875
v 0.4102849001828866 0.21314672407509977 0.754204375
v 0.2953562190137679 0.13605846952202558 0.6665775
v 0.42265891666622446 0.14952068315121225 0.6730612499999999
v 0.3023452651195925 0.1001389751065705 0.5735125
v 0.42991378355373294 0.11223365936581658 0.5764375
v 0.43140262387332734 0.10460699518965966 0.4729225
v 0.2995313640099774 0.11467092531814072 0.376335625
v 0.30377984413112663 0.09279146116070652 0.473809375
v 0.4269923138729743 0.12731900190205556 0.371721875
v 0.28997931338457883 0.16382834335836205 0.289758125
v 0.4170759200831496 0.17834752750510185 0.281833125
v 0.2759734905792102 0.23588860637251996 0.221769375
v 0.40253690539132564 0.2531508249800063 0.21124500000000002
v 0.25876025333942576 0.32444303514230266 0.178405625
v 0.3846682392524228 0.34507714312493176 0.16622187500000002
v 0.23986919151329186 0.42162584759896826 0.16351062500000002
v 0.3650579467693414 0.4459600765462054 0.1507575
v 0.2209781296871579 0.5188086600556339 0.178405625
v 0.34544765428626 0.546843009967479 0.16622187500000002
v 0.20376366541339416 0.6073628503141724 0.22177000000000002
v 0.32757837463036754 0.6387692088567823 0.21124500000000002
v 0.18975612131267872 0.6794221420444743 0.289758125
v 0.31303702512620707 0.7135714157922088 0.28183375
v 0.18019842977875117 0.7285791003010863 0.376335625
v 0.3031162174618326 0.76459972012289 0.371721875
v 0.17594258745372604 0.7504571333910552 0.473809375
v 0.2986979317406141 0.7873101765121984 0.4729225
v 0.17736612315944644 0.7431074728439933 0.5735125
v 0.30017572875439474 0.7796813657348434 0.5764375
v 0.18434216615286608 0.7071860875774635 0.6665775
v 0.30741820604648795 0.7423925703539953 0.6730612499999999
v 0.19625038316552523 0.6458908666527909 0.744731875
v 0.31978007144565485 0.6787635308006759 0.754205
v 0.21203193800646436 0.5646756011022612 0.8010349999999999
v 0.33616194184941833 0.5944566338836536 0.81266125
v 0.23028440179854487 0.4707584375647851 0.8304925000000001
v 0.3551094274071579 0.49696389333046925 0.843245625
v 0.2147309463791765 0.4167394677386192 0.5
v 1.1963581298268404 0.607548463115164 0.5
v 1.1772555242758251 0.5775695928572047 0.65450875
v 1.111978953945576 0.5411870360081712 0.7938925
v 1.00691713155794 0.5019608497008858 0.90450875
v 0.8723555787335229 0.4637316672337362 0.9755281250000001
v 0.7214646866322505 0.43024190137593576 1
v 0.5690156005724843 0.4047683485049648 0.9755281250000001
v 0.4299313975351548 0.38980618435348346 0.90450875
v 0.3178253840607054 0.38681921959112725 0.7938925
v 0.24367285628802765 0.3960995052481205 0.65450875
v 1.1865616367472056 0.5296937945694931 0.637765
v 1.1296801851910359 0.450122095716721 0.762045
v 1.0312808166438383 0.3766205557483915 0.86067375
v 0.900996724473275 0.31638574589630397 0.9239975
v 0.7515799511169085 0.2753122965293806 0.9458175
v 0.5976567463122364 0.2574224271675325 0.9239975
v 0.4542950826210531 0.2644658904009891 0.86067375
v 0.33552661530616534 0.2957542792996771 0.762045
v 0.25297896875940806 0.348223706960409 0.637765
v 1.1943261317915657 0.489748930407049 0.6060925
v 1.1444492784556688 0.3741416976499132 0.701800625
v 1.0516086529662785 0.2720429037597947 0.777754375
v 0.9248935237986113 0.1934473709583082 0.8265199999999999
v 0.7767065144174465 0.1460473343940647 0.843323125
v 0.6215535456375728 0.13448405222953674 0.8265199999999999
v 0.4746229189434933 0.15988823841239233 0.777754375
v 0.35029570857079834 0.2197738812328693 0.701800625
v 0.2607434638037681 0.3082788427979649 0.6060925
v 1.1997076609949169 0.462063362731887 0.56292375
v 1.1546855847795099 0.32148046684289433 0.6196875
v 1.0656976314180162 0.19956139308498808 0.66473625
v 0.9414562216197838 0.10823967736709228 0.69365875
v 0.7941215321698417 0.056454834877786075 0.703625
v 0.6381162434587453 0.04927635863832086 0.69365875
v 0.4887118973952311 0.08740672773758573 0.66473625
v 0.36053201489463943 0.16711265042585044 0.6196875
v 0.26612499300711934 0.28059327512280285 0.56292375
v 1.2021230643651397 0.4496371896234188 0.512935625
v 1.1592799076213107 0.29784472481644353 0.524605
v 1.0720212800360391 0.16702904119155318 0.533865625
v 0.948890020824032 0.06999609581696098 0.539811875
v 0.8019379034098197 0.0162430908248421 0.541860625
v 0.6455500426629934 0.011032777088189505 0.539811875
v 0.495035546013254 0.05487437584415078 0.533865625
v 0.36512633773644027 0.1434769083993997 0.524605
v 0.26854039637734217 0.2681671020143347 0.512935625
v 1.201310575811702 0.4538170808739369 0.46154625
v 1.1577343547587609 0.30579590500236964 0.42685625
v 1.069893998248835 0.17797295725301535 0.39932625
v 0.9463893496840002 0.08286093357303226 0.381650625
v 0.799308555453531 0.029769913412750926 0.37556
v 0.6430493715229617 0.023897614844260784 0.381650625
v 0.4929082642260497 0.06581829190561295 0.39932625
v 0.3635807848738903 0.1514280885853258 0.42685625
v 0.26772790782390443 0.2723469932648528 0.46154625
v 1.1973582059837211 0.47415026094507595 0.414323125
v 1.150216599596547 0.3444714025132179 0.337033125
v 1.059546664940809 0.23120537237740293 0.275695625
v 0.9342251569731234 0.14544028003481055 0.23631437500000002
v 0.786518389982197 0.09556961055322716 0.222744375
v 0.6308851788120848 0.0864769613060391 0.23631437500000002
v 0.48256093091802393 0.11905070703000054 0.275695625
v 0.3560630297116765 0.19010358609617403 0.337033125
v 0.2637755379959235 0.29268017333599183 0.414323125
v 1.1906942018201951 0.5084335903269857 0.37638499999999997
v 1.1375410387780611 0.40968150982663587 0.264870625
v 1.042100282959799 0.32095922686196066 0.176371875
v 0.9137158135938312 0.2509517048816621 0.1195525
v 0.7649533958359841 0.2065118877925029 0.09997374999999997
v 0.6103758354327927 0.1919883861528906 0.1195525
v 0.34338746889319055 0.255313693409592 0.264870625
v 0.2571115338323977 0.32696350271790153 0.37638499999999997
v 1.1820408946242467 0.5529509966133268 0.3518425
v 1.1210813778143918 0.49435912473878996 0.21818749999999998
v 1.0194455309387416 0.4375078223527018 0.11211874999999999
v 0.8870835288085278 0.38796293252835934 0.04401812500000002
v 0.7369506254413887 0.35057365268431306 0.020552499999999974
v 0.5837435506474893 0.32899961379958786 0.04401812500000002
v 0.4424597969159566 0.32535315700529943 0.11211874999999999
v 0.32692780792952136 0.3399913083217461 0.21818749999999998
v 0.2484582266364493 0.37148090900424274 0.3518425
v 1.1723358720969073 0.6028790092314337 0.34335499999999997
v 1.1026213230454438 0.5893278736354135 0.20204375000000002
v 0.994037405114401 0.5682212981005927 0.089898125
v 0.8572145271835278 0.5416256247912773 0.017896250000000002
v 0.7055445381030084 0.5121439654268916 -0.006913750000000052
v 0.5538745490224892 0.4826623060625059 0.017896250000000002
v 0.4170516710916159 0.45606663275319037 0.089898125
v 0.3084677531605733 0.43496005721836967 0.20204375000000002
v 0.23875320410910977 0.42140892162234955 0.34335499999999997
v 1.1626308495695676 0.6528070218495405 0.3518425
v 1.0841612682764958 0.684296622532037 0.21818749999999998
v 0.9686292792900603 0.6989347738484837 0.11211874999999999
v 0.8273455255585277 0.6952883170541954 0.04401812500000002
v 0.6741384507646282 0.6737142781694702 0.020552499999999974
v 0.5240055473974892 0.6363249983254239 0.04401812500000002
v 0.3916435452672752 0.5867801085010813 0.11211874999999999
v 0.2900076983916252 0.5299288061149933 0.21818749999999998
v 0.22904818158177026 0.47133693424045636 0.3518425
v 1.1539775423736194 0.6973244281358817 0.37638499999999997
v 1.0677016073128265 0.7689742374441912 0.264870625
v 0.9459745272690031 0.8154833693392249 0.176371875
v 0.8007132407732243 0.8322995447008927 0.1195525
v 0.6461356803700328 0.8177760430612804 0.09997374999999997
v 0.49737326261218573 0.7733362259721213 0.1195525
v 0.368988793246218 0.7033287039918226 0.176371875
v 0.273548037427956 0.6146064210271474 0.264870625
v 0.22039487438582184 0.5158543405267976 0.37638499999999997
v 1.1473135382100934 0.7316077575177913 0.414323125
v 1.0550260464943406 0.8341843447576092 0.337033125
v 0.928528145287993 0.9052372238237827 0.275695625
v 0.7802038973939321 0.9378109695477442 0.23631437500000002
v 0.6245706862238198 0.928718320300556 0.222744375
v 0.4768639192328936 0.8788476508189728 0.23631437500000002
v 0.35154241126520785 0.7930825584763803 0.275695625
v 0.26087247660947005 0.6798165283405653 0.337033125
v 0.213730870222296 0.5501376699087073 0.414323125
v 1.1433611683821125 0.7519409375889303 0.46154625
v 1.0475082913321268 0.8728598422684575 0.42685625
v 0.9181808119799671 0.9584696389481702 0.39932625
v 0.7680397046830553 1.0003903160095224 0.381650625
v 0.6117805207524858 0.9945180174410324 0.37556
v 0.4646997265220168 0.941426997280751 0.381650625
v 0.34119507795718207 0.8463149736007678 0.39932625
v 0.2533547214472563 0.7184920258514136 0.42685625
v 0.20977850039431511 0.5704708499798463 0.46154625
v 1.1425486798286748 0.7561208288394485 0.512935625
v 1.0459627384695769 0.8808110224543836 0.524605
v 0.9160535301927629 0.9694135550096323 0.533865625
v 0.7655390335430236 1.0132551537655936 0.539811875
v 0.6091511727961971 1.008044840028941 0.541860625
v 0.462199055381985 0.9542918350368222 0.539811875
v 0.3390677961699778 0.85725888966223 0.533865625
v 0.25180916858470626 0.7264432060373398 0.524605
v 0.20896601184087737 0.5746507412303644 0.512935625
v 1.1449640831988976 0.7436946557309804 0.56292375
v 1.0505570613113777 0.8571752804279329 0.6196875
v 0.9223771788107857 0.9368812031161975 0.66473625
v 0.7729728327472717 0.9750115722154623 0.69365875
v 0.6169675440361752 0.9678330959759973 0.703625
v 0.46963285458623316 0.9160482534866909 0.69365875
v 0.3453914447880007 0.8247265377687951 0.66473625
v 0.25640349142650715 0.702807464010889 0.6196875
v 0.2113814152111002 0.5622245681218963 0.56292375
v 1.1503456124022489 0.7160090880558183 0.6060925
v 1.0607933676352188 0.8045140496209139 0.701800625
v 0.9364661572625236 0.8643996924413909 0.777754375
v 0.7895355305684442 0.8898038786242465 0.8265199999999999
v 0.6343825617885702 0.8782405964597186 0.843323125
v 0.48619555240740564 0.830840559895475 0.8265199999999999
v 0.35948042323973844 0.7522450270939885 0.777754375
v 0.26663979775034824 0.6501462332038701 0.701800625
v 0.21676294441445143 0.5345390004467342 0.6060925
v 1.158110107446609 0.6760642238933743 0.637765
v 1.0755624608998517 0.7285336515541061 0.762045
v 0.9567939935849638 0.759822040452794 0.86067375
v 0.8134323298937806 0.7668655036862507 0.9239975
v 0.6595091250891084 0.7489756343244027 0.9458175
v 0.510092351732742 0.7079021849574793 0.9239975
v 0.3798082595621787 0.6476673751053916 0.86067375
v 0.28140889101498123 0.5741658351370622 0.762045
v 0.22452743945881148 0.49459413628429016 0.637765
v 1.1674162199179894 0.6281884256056627 0.65450875
v 1.0932636921453116 0.6374687112626559 0.7938925
v 0.9811576786708621 0.6344817465002998 0.90450875
v 0.8420734756335326 0.6195195823488184 0.9755281250000001
v 0.6896243895737664 0.5940460294778475 1
v 0.5387334974724941 0.560556263620047 0.9755281250000001
v 0.404171944648077 0.5223270811528974 0.90450875
v 0.2991101222604412 0.4831008948456121 0.7938925
v 0.2338335519301919 0.4467183379965786 0.65450875
vt 0.014648125 0.988241875
vt 0.014648125 0.999023125
vt 0.000976875 0.988241875
vt 0.0311525 1
vt 0.0311525 0.984335625
vt 0.0467775 0.984335625
vt 0.0467775 1
vt 0.014648125 0.988241875
vt 0.014648125 0.999023125
vt 0.000976875 0.988241875
vt 0.0311525 1
vt 0.0311525 0.984335625
vt 0.0467775 0.984335625
vt 0.0467775 1
vt 0.014648125 0.988241875
vt 0.014648125 0.999023125
vt 0.000976875 0.988241875
vt 0.0311525 1
vt 0.0311525 0.984335625
vt 0.0467775 0.984335625
vt 0.0467775 1
vt 0.014648125 0.988241875
vt 0.014648125 0.999023125
vt 0.000976875 0.988241875
vt 0.0311525 1
vt 0.0311525 0.984335625
vt 0.0467775 0.984335625
vt 0.0467775 1
vt 0.014648125 0.988241875
vt 0.014648125 0.999023125
vt 0.000976875 0.9936325
vt 0.0311525 1
vt 0.0311525 0.984335625
vt 0.0467775 0.984335625
vt 0.0467775 1
vt 0.000976875 0.988241875
vt 0.014648125 0.98959
vt 0.000976875 0.999023125
vt 0.0311525 1
vt 0.0311525 0.984335625
vt 0.0467775 0.984335625
vt 0.0467775 1
vt 0.000976875 0.988241875
vt 0.014648125 0.98959
vt 0.000976875 0.999023125
vt 0.0311525 1
vt 0.0311525 0.984335625
vt 0.0467775 0.984335625
vt 0.0467775 1
vt 0.000976875 0.988241875
vt 0.014648125 0.98959
vt 0.000976875 0.999023125
vt 0.0311525 1
vt 0.0311525 0.984335625
vt 0.0467775 0.984335625
vt 0.0467775 1
vt 0.000976875 0.988241875
vt 0.014648125 0.98959
vt 0.000976875 0.999023125
vt 0.0311525 1
vt 0.0311525 0.984335625
vt 0.0467775 0.984335625
vt 0.0467775 1
vt 0.000976875 0.988241875
vt 0.014648125 0.98959
vt 0.000976875 0.999023125
vt 0.0311525 1
vt 0.0311525 0.984335625
vt 0.0467775 0.984335625
vt 0.0467775 1
vt 0.000976875 0.98959
vt 0.014648125 0.988241875
vt 0.014648125 0.999023125
vt 0.0311525 1
vt 0.0311525 0.984335625
vt 0.0467775 0.984335625
vt 0.0467775 1
vt 0.000976875 0.999023125
vt 0.000976875 0.988241875
vt 0.014648125 0.999023125
vt 0.0311525 1
vt 0.0311525 0.984335625
vt 0.0467775 0.984335625
vt 0.0467775 1
vt 0.000976875 0.999023125
vt 0.000976875 0.988241875
vt 0.014648125 0.999023125
vt 0.0311525 1
vt 0.0311525 0.984335625
vt 0.0467775 0.984335625
vt 0.0467775 1
vt 0.000976875 0.999023125
vt 0.000976875 0.988241875
vt 0.014648125 0.999023125
vt 0.0311525 1
vt 0.0311525 0.984335625
vt 0.0467775 0.984335625
vt 0.0467775 1
vt 0.000976875 0.999023125
vt 0.000976875 0.988241875
vt 0.014648125 0.999023125
vt 0.0311525 1
vt 0.0311525 0.984335625
vt 0.0467775 0.984335625
vt 0.0467775 1
vt 0.000976875 0.999023125
vt 0.000976875 0.988241875
vt 0.014648125 0.988241875
vt 0.0311525 1
vt 0.0311525 0.984335625
vt 0.0467775 0.984335625
vt 0.0467775 1
vt 0.014648125 0.999023125
vt 0.000976875 0.999023125
vt 0.014648125 0.988241875
vt 0.0311525 1
vt 0.0311525 0.984335625
vt 0.0467775 0.984335625
vt 0.0467775 1
vt 0.014648125 0.999023125
vt 0.000976875 0.999023125
vt 0.014648125 0.988241875
vt 0.0311525 1
vt 0.0311525 0.984335625
vt 0.0467775 0.984335625
vt 0.0467775 1
vt 0.014648125 0.999023125
vt 0.000976875 0.999023125
vt 0.014648125 0.988241875
vt 0.0311525 1
vt 0.0311525 0.984335625
vt 0.0467775 0.984335625
vt 0.0467775 1
vt 0.014648125 0.999023125
vt 0.000976875 0.999023125
vt 0.014648125 0.988241875
vt 0.0311525 1
vt 0.0311525 0.984335625
vt 0.0467775 0.984335625
vt 0.0467775 1
vt 0.014648125 0.999023125
vt 0.000976875 0.999023125
vt 0.0078125 0.988241875
vt 0.0311525 1
vt 0.0311525 0.984335625
vt 0.0467775 0.984335625
vt 0.0467775 1
vt 0.014648125 0.986894375
vt 0.014648125 0.996328125
vt 0.000976875 0.996328125
vt 0.000976875 0.986894375
vt 0.014648125 0.986894375
vt 0.014648125 0.996328125
vt 0.000976875 0.996328125
vt 0.000976875 0.986894375
vt 0.014648125 0.986894375
vt 0.014648125 0.996328125
vt 0.000976875 0.996328125
vt 0.000976875 0.986894375
vt 0.014648125 0.986894375
vt 0.014648125 0.996328125
vt 0.000976875 0.996328125
vt 0.000976875 0.986894375
vt 0.014648125 0.986894375
vt 0.014648125 0.996328125
vt 0.000976875 0.996328125
vt 0.000976875 0.986894375
vt 0.015625 0.984511875
vt 0.015625 1
vt 0 1
vt 0 0.984511875
vt 0.015625 0.984511875
vt 0.015625 1
vt 0 1
vt 0 0.984511875
vt 0.014648125 0.986894375
vt 0.014648125 0.996328125
vt 0.000976875 0.996328125
vt 0.000976875 0.986894375
vt 0.014648125 0.986894375
vt 0.014648125 0.996328125
vt 0.000976875 0.996328125
vt 0.000976875 0.986894375
vt 0.014648125 0.986894375
vt 0.014648125 0.996328125
vt 0.000976875 0.996328125
vt 0.000976875 0.986894375
vt 0.014648125 0.986894375
vt 0.014648125 0.996328125
vt 0.000976875 0.996328125
vt 0.000976875 0.986894375
vt 0.014648125 0.986894375
vt 0.014648125 0.996328125
vt 0.000976875 0.996328125
vt 0.000976875 0.986894375
vt 0.014648125 0.986894375
vt 0.014648125 0.996328125
vt 0.000976875 0.996328125
vt 0.000976875 0.986894375
vt 0.014648125 0.986894375
vt 0.014648125 0.996328125
vt 0.000976875 0.996328125
vt 0.000976875 0.986894375
vt 0.014648125 0.986894375
vt 0.014648125 0.996328125
vt 0.000976875 0.996328125
vt 0.000976875 0.986894375
vt 0.014648125 0.986894375
vt 0.014648125 0.996328125
vt 0.000976875 0.996328125
vt 0.000976875 0.986894375
vt 0.014648125 0.986894375
vt 0.014648125 0.996328125
vt 0.000976875 0.996328125
vt 0.000976875 0.986894375
vt 0.014648125 0.986894375
vt 0.014648125 0.996328125
vt 0.000976875 0.996328125
vt 0.000976875 0.986894375
vt 0.014648125 0.986894375
vt 0.014648125 0.996328125
vt 0.000976875 0.996328125
vt 0.000976875 0.986894375
vt 0.014648125 0.986894375
vt 0.014648125 0.996328125
vt 0.000976875 0.996328125
vt 0.000976875 0.986894375
vt 0.014648125 0.986894375
vt 0.014648125 0.996328125
vt 0.000976875 0.996328125
vt 0.000976875 0.986894375
vt 0.016601875 0.999023125
vt 0.016601875 0.988241875
vt 0.03027375 0.98959
vt 0.03027375 0.999023125
vt 0.016601875 0.999023125
vt 0.016601875 0.988241875
vt 0.03027375 0.98959
vt 0.03027375 0.999023125
vt 0.016601875 0.999023125
vt 0.016601875 0.988241875
vt 0.03027375 0.98959
vt 0.03027375 0.999023125
vt 0.016601875 0.999023125
vt 0.016601875 0.988241875
vt 0.03027375 0.98959
vt 0.03027375 0.999023125
vt 0.016601875 0.999023125
vt 0.016601875 0.988241875
vt 0.03027375 0.98959
vt 0.03027375 0.999023125
vt 0.016601875 0.999023125
vt 0.016601875 0.988241875
vt 0.03027375 0.98959
vt 0.03027375 0.999023125
vt 0.016601875 0.999023125
vt 0.016601875 0.988241875
vt 0.03027375 0.98959
vt 0.03027375 0.999023125
vt 0.016601875 0.985546875
vt 0.03027375 0.985546875
vt 0.03027375 0.996328125
vt 0.016601875 0.996328125
vt 0.016601875 0.985546875
vt 0.03027375 0.985546875
vt 0.03027375 0.996328125
vt 0.016601875 0.996328125
vt 0.016601875 0.985546875
vt 0.03027375 0.985546875
vt 0.03027375 0.996328125
vt 0.016601875 0.996328125
vt 0.016601875 0.985546875
vt 0.03027375 0.985546875
vt 0.03027375 0.996328125
vt 0.016601875 0.996328125
vt 0.016601875 0.985546875
vt 0.03027375 0.985546875
vt 0.03027375 0.996328125
vt 0.016601875 0.996328125
vt 0.016601875 0.985546875
vt 0.03027375 0.985546875
vt 0.03027375 0.996328125
vt 0.016601875 0.996328125
vt 0.016601875 0.985546875
vt 0.03027375 0.985546875
vt 0.03027375 0.996328125
vt 0.016601875 0.996328125
vt 0.016601875 0.985546875
vt 0.03027375 0.985546875
vt 0.03027375 0.996328125
vt 0.016601875 0.996328125
vt 0.016601875 0.985546875
vt 0.03027375 0.985546875
vt 0.03027375 0.996328125
vt 0.016601875 0.996328125
vt 0.016601875 0.985546875
vt 0.03027375 0.985546875
vt 0.03027375 0.996328125
vt 0.016601875 0.996328125
vt 0.016601875 0.985546875
vt 0.03027375 0.985546875
vt 0.03027375 0.996328125
vt 0.016601875 0.996328125
vt 0.016601875 0.985546875
vt 0.03027375 0.985546875
vt 0.03027375 0.996328125
vt 0.016601875 0.996328125
vt 0.016601875 0.985546875
vt 0.03027375 0.985546875
vt 0.03027375 0.996328125
vt 0.016601875 0.996328125
vt 0.016601875 0.999023125
vt 0.016601875 0.988241875
vt 0.03027375 0.98959
vt 0.03027375 0.999023125
vt 0.000488125 0.983886875
vt 0.000488125 0.96972625
vt 0.01464875 0.96972625
vt 0.000488125 0.983886875
vt 0.000488125 0.96972625
vt 0.01464875 0.96972625
vt 0.01464875 0.983886875
vt 0.000488125 0.983886875
vt 0.000488125 0.96972625
vt 0.01464875 0.96972625
vt 0.01464875 0.983886875
vt 0.000488125 0.983886875
vt 0.000488125 0.96972625
vt 0.01464875 0.96972625
vt 0.01464875 0.983886875
vt 0.000488125 0.983886875
vt 0.000488125 0.96972625
vt 0.01464875 0.96972625
vt 0.01464875 0.983886875
vt 0.000488125 0.983886875
vt 0.000488125 0.96972625
vt 0.01464875 0.96972625
vt 0.01464875 0.983886875
vt 0.000488125 0.983886875
vt 0.000488125 0.96972625
vt 0.01464875 0.96972625
vt 0.01464875 0.983886875
vt 0.000488125 0.983886875
vt 0.000488125 0.96972625
vt 0.01464875 0.96972625
vt 0.01464875 0.983886875
vt 0.000488125 0.983886875
vt 0.000488125 0.96972625
vt 0.01464875 0.96972625
vt 0.01464875 0.983886875
vt 0.000488125 0.983886875
vt 0.000488125 0.96972625
vt 0.01464875 0.96972625
vt 0.000488125 0.983886875
vt 0.000488125 0.96972625
vt 0.01464875 0.96972625
vt 0.000488125 0.983886875
vt 0.000488125 0.96972625
vt 0.01464875 0.96972625
vt 0.01464875 0.983886875
vt 0.000488125 0.983886875
vt 0.000488125 0.96972625
vt 0.01464875 0.96972625
vt 0.01464875 0.983886875
vt 0.000488125 0.983886875
vt 0.000488125 0.96972625
vt 0.01464875 0.96972625
vt 0.01464875 0.983886875
vt 0.000488125 0.983886875
vt 0.000488125 0.96972625
vt 0.01464875 0.96972625
vt 0.01464875 0.983886875
vt 0.000488125 0.983886875
vt 0.000488125 0.96972625
vt 0.01464875 0.96972625
vt 0.01464875 0.983886875
vt 0.000488125 0.983886875
vt 0.000488125 0.96972625
vt 0.01464875 0.96972625
vt 0.01464875 0.983886875
vt 0.000488125 0.983886875
vt 0.000488125 0.96972625
vt 0.01464875 0.96972625
vt 0.01464875 0.983886875
vt 0.000488125 0.983886875
vt 0.000488125 0.96972625
vt 0.01464875 0.96972625
vt 0.01464875 0.983886875
vt 0.000488125 0.983886875
vt 0.000488125 0.96972625
vt 0.01464875 0.96972625
vt 0.000488125 0.983886875
vt 0.000488125 0.96972625
vt 0.01464875 0.96972625
vt 0.000488125 0.983886875
vt 0.000488125 0.96972625
vt 0.01464875 0.96972625
vt 0.01464875 0.983886875
vt 0.000488125 0.983886875
vt 0.000488125 0.96972625
vt 0.01464875 0.96972625
vt 0.01464875 0.983886875
vt 0.000488125 0.983886875
vt 0.000488125 0.96972625
vt 0.01464875 0.96972625
vt 0.01464875 0.983886875
vt 0.000488125 0.983886875
vt 0.000488125 0.96972625
vt 0.01464875 0.96972625
vt 0.01464875 0.983886875
vt 0.000488125 0.983886875
vt 0.000488125 0.96972625
vt 0.01464875 0.96972625
vt 0.01464875 0.983886875
vt 0.000488125 0.983886875
vt 0.000488125 0.96972625
vt 0.01464875 0.96972625
vt 0.01464875 0.983886875
vt 0.000488125 0.983886875
vt 0.000488125 0.96972625
vt 0.01464875 0.96972625
vt 0.01464875 0.983886875
vt 0.000488125 0.983886875
vt 0.000488125 0.96972625
vt 0.01464875 0.96972625
vt 0.01464875 0.983886875
vt 0.000488125 0.983886875
vt 0.000488125 0.96972625
vt 0.01464875 0.96972625
vt 0.000488125 0.983886875
vt 0.000488125 0.96972625
vt 0.01464875 0.96972625
vt 0.000488125 0.983886875
vt 0.000488125 0.96972625
vt 0.01464875 0.96972625
vt 0.01464875 0.983886875
vt 0.000488125 0.983886875
vt 0.000488125 0.96972625
vt 0.01464875 0.96972625
vt 0.01464875 0.983886875
vt 0.000488125 0.983886875
vt 0.000488125 0.96972625
vt 0.01464875 0.96972625
vt 0.01464875 0.983886875
vt 0.000488125 0.983886875
vt 0.000488125 0.96972625
vt 0.01464875 0.96972625
vt 0.01464875 0.983886875
vt 0.000488125 0.983886875
vt 0.000488125 0.96972625
vt 0.01464875 0.96972625
vt 0.01464875 0.983886875
vt 0.000488125 0.983886875
vt 0.000488125 0.96972625
vt 0.01464875 0.96972625
vt 0.01464875 0.983886875
vt 0.000488125 0.983886875
vt 0.000488125 0.96972625
vt 0.01464875 0.96972625
vt 0.01464875 0.983886875
vt 0.000488125 0.983886875
vt 0.000488125 0.96972625
vt 0.01464875 0.96972625
vt 0.01464875 0.983886875
vt 0.000488125 0.983886875
vt 0.000488125 0.96972625
vt 0.01464875 0.96972625
vt 0.000488125 0.983886875
vt 0.000488125 0.96972625
vt 0.01464875 0.96972625
vt 0.000488125 0.983886875
vt 0.000488125 0.96972625
vt 0.01464875 0.96972625
vt 0.01464875 0.983886875
vt 0.000488125 0.983886875
vt 0.000488125 0.96972625
vt 0.01464875 0.96972625
vt 0.01464875 0.983886875
vt 0.000488125 0.983886875
vt 0.000488125 0.96972625
vt 0.01464875 0.96972625
vt 0.01464875 0.983886875
vt 0.000488125 0.983886875
vt 0.000488125 0.96972625
vt 0.01464875 0.96972625
vt 0.01464875 0.983886875
vt 0.000488125 0.983886875
vt 0.000488125 0.96972625
vt 0.01464875 0.96972625
vt 0.01464875 0.983886875
vt 0.000488125 0.983886875
vt 0.000488125 0.96972625
vt 0.01464875 0.96972625
vt 0.01464875 0.983886875
vt 0.000488125 0.983886875
vt 0.000488125 0.96972625
vt 0.01464875 0.96972625
vt 0.01464875 0.983886875
vt 0.000488125 0.983886875
vt 0.000488125 0.96972625
vt 0.01464875 0.96972625
vt 0.01464875 0.983886875
vt 0.000488125 0.983886875
vt 0.000488125 0.96972625
vt 0.01464875 0.96972625
vt 0.000488125 0.983886875
vt 0.000488125 0.96972625
vt 0.01464875 0.96972625
vt 0.000488125 0.983886875
vt 0.000488125 0.96972625
vt 0.01464875 0.96972625
vt 0.01464875 0.983886875
vt 0.000488125 0.983886875
vt 0.000488125 0.96972625
vt 0.01464875 0.96972625
vt 0.01464875 0.983886875
vt 0.000488125 0.983886875
vt 0.000488125 0.96972625
vt 0.01464875 0.96972625
vt 0.01464875 0.983886875
vt 0.000488125 0.983886875
vt 0.000488125 0.96972625
vt 0.01464875 0.96972625
vt 0.01464875 0.983886875
vt 0.000488125 0.983886875
vt 0.000488125 0.96972625
vt 0.01464875 0.96972625
vt 0.01464875 0.983886875
vt 0.000488125 0.983886875
vt 0.000488125 0.96972625
vt 0.01464875 0.96972625
vt 0.01464875 0.983886875
vt 0.000488125 0.983886875
vt 0.000488125 0.96972625
vt 0.01464875 0.96972625
vt 0.01464875 0.983886875
vt 0.000488125 0.983886875
vt 0.000488125 0.96972625
vt 0.01464875 0.96972625
vt 0.01464875 0.983886875
vt 0.000488125 0.983886875
vt 0.000488125 0.96972625
vt 0.01464875 0.96972625
vt 0.000488125 0.983886875
vt 0.000488125 0.96972625
vt 0.01464875 0.96972625
vt 0.000488125 0.983886875
vt 0.000488125 0.96972625
vt 0.01464875 0.96972625
vt 0.01464875 0.983886875
vt 0.000488125 0.983886875
vt 0.000488125 0.96972625
vt 0.01464875 0.96972625
vt 0.01464875 0.983886875
vt 0.000488125 0.983886875
vt 0.000488125 0.96972625
vt 0.01464875 0.96972625
vt 0.01464875 0.983886875
vt 0.000488125 0.983886875
vt 0.000488125 0.96972625
vt 0.01464875 0.96972625
vt 0.01464875 0.983886875
vt 0.000488125 0.983886875
vt 0.000488125 0.96972625
vt 0.01464875 0.96972625
vt 0.01464875 0.983886875
vt 0.000488125 0.983886875
vt 0.000488125 0.96972625
vt 0.01464875 0.96972625
vt 0.01464875 0.983886875
vt 0.000488125 0.983886875
vt 0.000488125 0.96972625
vt 0.01464875 0.96972625
vt 0.01464875 0.983886875
vt 0.000488125 0.983886875
vt 0.000488125 0.96972625
vt 0.01464875 0.96972625
vt 0.01464875 0.983886875
vt 0.000488125 0.983886875
vt 0.000488125 0.96972625
vt 0.01464875 0.96972625
vt 0.000488125 0.983886875
vt 0.000488125 0.96972625
vt 0.01464875 0.96972625
vt 0.000488125 0.983886875
vt 0.000488125 0.96972625
vt 0.01464875 0.96972625
vt 0.01464875 0.983886875
vt 0.000488125 0.983886875
vt 0.000488125 0.96972625
vt 0.01464875 0.96972625
vt 0.01464875 0.983886875
vt 0.000488125 0.983886875
vt 0.000488125 0.96972625
vt 0.01464875 0.96972625
vt 0.01464875 0.983886875
vt 0.000488125 0.983886875
vt 0.000488125 0.96972625
vt 0.01464875 0.96972625
vt 0.01464875 0.983886875
vt 0.000488125 0.983886875
vt 0.000488125 0.96972625
vt 0.01464875 0.96972625
vt 0.01464875 0.983886875
vt 0.000488125 0.983886875
vt 0.000488125 0.96972625
vt 0.01464875 0.96972625
vt 0.01464875 0.983886875
vt 0.000488125 0.983886875
vt 0.000488125 0.96972625
vt 0.01464875 0.96972625
vt 0.01464875 0.983886875
vt 0.000488125 0.983886875
vt 0.000488125 0.96972625
vt 0.01464875 0.96972625
vt 0.01464875 0.983886875
vt 0.000488125 0.983886875
vt 0.000488125 0.96972625
vt 0.01464875 0.96972625
vt 0.000488125 0.983886875
vt 0.000488125 0.96972625
vt 0.01464875 0.96972625
vt 0.000488125 0.983886875
vt 0.000488125 0.96972625
vt 0.01464875 0.96972625
vt 0.01464875 0.983886875
vt 0.000488125 0.983886875
vt 0.000488125 0.96972625
vt 0.01464875 0.96972625
vt 0.01464875 0.983886875
vt 0.000488125 0.983886875
vt 0.000488125 0.96972625
vt 0.01464875 0.96972625
vt 0.01464875 0.983886875
vt 0.000488125 0.983886875
vt 0.000488125 0.96972625
vt 0.01464875 0.96972625
vt 0.01464875 0.983886875
vt 0.000488125 0.983886875
vt 0.000488125 0.96972625
vt 0.01464875 0.96972625
vt 0.01464875 0.983886875
vt 0.000488125 0.983886875
vt 0.000488125 0.96972625
vt 0.01464875 0.96972625
vt 0.01464875 0.983886875
vt 0.000488125 0.983886875
vt 0.000488125 0.96972625
vt 0.01464875 0.96972625
vt 0.01464875 0.983886875
vt 0.000488125 0.983886875
vt 0.000488125 0.96972625
vt 0.01464875 0.96972625
vt 0.01464875 0.983886875
vt 0.000488125 0.983886875
vt 0.000488125 0.96972625
vt 0.01464875 0.96972625
vt 0.000488125 0.983886875
vt 0.000488125 0.96972625
vt 0.01464875 0.96972625
vt 0.000488125 0.983886875
vt 0.000488125 0.96972625
vt 0.01464875 0.96972625
vt 0.01464875 0.983886875
vt 0.000488125 0.983886875
vt 0.000488125 0.96972625
vt 0.01464875 0.96972625
vt 0.01464875 0.983886875
vt 0.000488125 0.983886875
vt 0.000488125 0.96972625
vt 0.01464875 0.96972625
vt 0.01464875 0.983886875
vt 0.000488125 0.983886875
vt 0.000488125 0.96972625
vt 0.01464875 0.96972625
vt 0.01464875 0.983886875
vt 0.000488125 0.983886875
vt 0.000488125 0.96972625
vt 0.01464875 0.96972625
vt 0.01464875 0.983886875
vt 0.000488125 0.983886875
vt 0.000488125 0.96972625
vt 0.01464875 0.96972625
vt 0.01464875 0.983886875
vt 0.000488125 0.983886875
vt 0.000488125 0.96972625
vt 0.01464875 0.96972625
vt 0.01464875 0.983886875
vt 0.000488125 0.983886875
vt 0.000488125 0.96972625
vt 0.01464875 0.96972625
vt 0.01464875 0.983886875
vt 0.000488125 0.983886875
vt 0.000488125 0.96972625
vt 0.01464875 0.96972625
vt 0.000488125 0.983886875
vt 0.000488125 0.96972625
vt 0.01464875 0.96972625
vt 0.000488125 0.983886875
vt 0.000488125 0.96972625
vt 0.01464875 0.96972625
vt 0.01464875 0.983886875
vt 0.000488125 0.983886875
vt 0.000488125 0.96972625
vt 0.01464875 0.96972625
vt 0.01464875 0.983886875
vt 0.000488125 0.983886875
vt 0.000488125 0.96972625
vt 0.01464875 0.96972625
vt 0.01464875 0.983886875
vt 0.000488125 0.983886875
vt 0.000488125 0.96972625
vt 0.01464875 0.96972625
vt 0.01464875 0.983886875
vt 0.000488125 0.983886875
vt 0.000488125 0.96972625
vt 0.01464875 0.96972625
vt 0.01464875 0.983886875
vt 0.000488125 0.983886875
vt 0.000488125 0.96972625
vt 0.01464875 0.96972625
vt 0.01464875 0.983886875
vt 0.000488125 0.983886875
vt 0.000488125 0.96972625
vt 0.01464875 0.96972625
vt 0.01464875 0.983886875
vt 0.000488125 0.983886875
vt 0.000488125 0.96972625
vt 0.01464875 0.96972625
vt 0.01464875 0.983886875
vt 0.000488125 0.983886875
vt 0.000488125 0.96972625
vt 0.01464875 0.96972625
vt 0.000488125 0.983886875
vt 0.000488125 0.96972625
vt 0.01464875 0.96972625
vt 0.000488125 0.983886875
vt 0.000488125 0.96972625
vt 0.01464875 0.96972625
vt 0.01464875 0.983886875
vt 0.000488125 0.983886875
vt 0.000488125 0.96972625
vt 0.01464875 0.96972625
vt 0.01464875 0.983886875
vt 0.000488125 0.983886875
vt 0.000488125 0.96972625
vt 0.01464875 0.96972625
vt 0.01464875 0.983886875
vt 0.000488125 0.983886875
vt 0.000488125 0.96972625
vt 0.01464875 0.96972625
vt 0.01464875 0.983886875
vt 0.000488125 0.983886875
vt 0.000488125 0.96972625
vt 0.01464875 0.96972625
vt 0.01464875 0.983886875
vt 0.000488125 0.983886875
vt 0.000488125 0.96972625
vt 0.01464875 0.96972625
vt 0.01464875 0.983886875
vt 0.000488125 0.983886875
vt 0.000488125 0.96972625
vt 0.01464875 0.96972625
vt 0.01464875 0.983886875
vt 0.000488125 0.983886875
vt 0.000488125 0.96972625
vt 0.01464875 0.96972625
vt 0.01464875 0.983886875
vt 0.000488125 0.983886875
vt 0.000488125 0.96972625
vt 0.01464875 0.96972625
vt 0.000488125 0.983886875
vt 0.000488125 0.96972625
vt 0.01464875 0.96972625
vt 0.000488125 0.983886875
vt 0.000488125 0.96972625
vt 0.01464875 0.96972625
vt 0.01464875 0.983886875
vt 0.000488125 0.983886875
vt 0.000488125 0.96972625
vt 0.01464875 0.96972625
vt 0.01464875 0.983886875
vt 0.000488125 0.983886875
vt 0.000488125 0.96972625
vt 0.01464875 0.96972625
vt 0.01464875 0.983886875
vt 0.000488125 0.983886875
vt 0.000488125 0.96972625
vt 0.01464875 0.96972625
vt 0.01464875 0.983886875
vt 0.000488125 0.983886875
vt 0.000488125 0.96972625
vt 0.01464875 0.96972625
vt 0.01464875 0.983886875
vt 0.000488125 0.983886875
vt 0.000488125 0.96972625
vt 0.01464875 0.96972625
vt 0.01464875 0.983886875
vt 0.000488125 0.983886875
vt 0.000488125 0.96972625
vt 0.01464875 0.96972625
vt 0.01464875 0.983886875
vt 0.000488125 0.983886875
vt 0.000488125 0.96972625
vt 0.01464875 0.96972625
vt 0.01464875 0.983886875
vt 0.000488125 0.983886875
vt 0.000488125 0.96972625
vt 0.01464875 0.96972625
vt 0.000488125 0.983886875
vt 0.000488125 0.96972625
vt 0.01464875 0.96972625
vt 0.000488125 0.983886875
vt 0.000488125 0.96972625
vt 0.01464875 0.96972625
vt 0.01464875 0.983886875
vt 0.000488125 0.983886875
vt 0.000488125 0.96972625
vt 0.01464875 0.96972625
vt 0.01464875 0.983886875
vt 0.000488125 0.983886875
vt 0.000488125 0.96972625
vt 0.01464875 0.96972625
vt 0.01464875 0.983886875
vt 0.000488125 0.983886875
vt 0.000488125 0.96972625
vt 0.01464875 0.96972625
vt 0.01464875 0.983886875
vt 0.000488125 0.983886875
vt 0.000488125 0.96972625
vt 0.01464875 0.96972625
vt 0.01464875 0.983886875
vt 0.000488125 0.983886875
vt 0.000488125 0.96972625
vt 0.01464875 0.96972625
vt 0.01464875 0.983886875
vt 0.000488125 0.983886875
vt 0.000488125 0.96972625
vt 0.01464875 0.96972625
vt 0.01464875 0.983886875
vt 0.000488125 0.983886875
vt 0.000488125 0.96972625
vt 0.01464875 0.96972625
vt 0.01464875 0.983886875
vt 0.000488125 0.983886875
vt 0.000488125 0.96972625
vt 0.01464875 0.96972625
vt 0.000488125 0.983886875
vt 0.000488125 0.96972625
vt 0.01464875 0.96972625
vt 0.000488125 0.983886875
vt 0.000488125 0.96972625
vt 0.01464875 0.96972625
vt 0.01464875 0.983886875
vt 0.000488125 0.983886875
vt 0.000488125 0.96972625
vt 0.01464875 0.96972625
vt 0.01464875 0.983886875
vt 0.000488125 0.983886875
vt 0.000488125 0.96972625
vt 0.01464875 0.96972625
vt 0.01464875 0.983886875
vt 0.000488125 0.983886875
vt 0.000488125 0.96972625
vt 0.01464875 0.96972625
vt 0.01464875 0.983886875
vt 0.000488125 0.983886875
vt 0.000488125 0.96972625
vt 0.01464875 0.96972625
vt 0.01464875 0.983886875
vt 0.000488125 0.983886875
vt 0.000488125 0.96972625
vt 0.01464875 0.96972625
vt 0.01464875 0.983886875
vt 0.000488125 0.983886875
vt 0.000488125 0.96972625
vt 0.01464875 0.96972625
vt 0.01464875 0.983886875
vt 0.000488125 0.983886875
vt 0.000488125 0.96972625
vt 0.01464875 0.96972625
vt 0.01464875 0.983886875
vt 0.000488125 0.983886875
vt 0.000488125 0.96972625
vt 0.01464875 0.96972625
vt 0.000488125 0.983886875
vt 0.000488125 0.96972625
vt 0.01464875 0.96972625
vt 0.000488125 0.983886875
vt 0.000488125 0.96972625
vt 0.01464875 0.96972625
vt 0.01464875 0.983886875
vt 0.000488125 0.983886875
vt 0.000488125 0.96972625
vt 0.01464875 0.96972625
vt 0.01464875 0.983886875
vt 0.000488125 0.983886875
vt 0.000488125 0.96972625
vt 0.01464875 0.96972625
vt 0.01464875 0.983886875
vt 0.000488125 0.983886875
vt 0.000488125 0.96972625
vt 0.01464875 0.96972625
vt 0.01464875 0.983886875
vt 0.000488125 0.983886875
vt 0.000488125 0.96972625
vt 0.01464875 0.96972625
vt 0.01464875 0.983886875
vt 0.000488125 0.983886875
vt 0.000488125 0.96972625
vt 0.01464875 0.96972625
vt 0.01464875 0.983886875
vt 0.000488125 0.983886875
vt 0.000488125 0.96972625
vt 0.01464875 0.96972625
vt 0.01464875 0.983886875
vt 0.000488125 0.983886875
vt 0.000488125 0.96972625
vt 0.01464875 0.96972625
vt 0.01464875 0.983886875
vt 0.000488125 0.983886875
vt 0.000488125 0.96972625
vt 0.01464875 0.96972625
vt 0.000488125 0.983886875
vt 0.000488125 0.96972625
vt 0.01464875 0.96972625
vt 0.000488125 0.983886875
vt 0.000488125 0.96972625
vt 0.01464875 0.96972625
vt 0.01464875 0.983886875
vt 0.000488125 0.983886875
vt 0.000488125 0.96972625
vt 0.01464875 0.96972625
vt 0.01464875 0.983886875
vt 0.000488125 0.983886875
vt 0.000488125 0.96972625
vt 0.01464875 0.96972625
vt 0.01464875 0.983886875
vt 0.000488125 0.983886875
vt 0.000488125 0.96972625
vt 0.01464875 0.96972625
vt 0.01464875 0.983886875
vt 0.000488125 0.983886875
vt 0.000488125 0.96972625
vt 0.01464875 0.96972625
vt 0.01464875 0.983886875
vt 0.000488125 0.983886875
vt 0.000488125 0.96972625
vt 0.01464875 0.96972625
vt 0.01464875 0.983886875
vt 0.000488125 0.983886875
vt 0.000488125 0.96972625
vt 0.01464875 0.96972625
vt 0.01464875 0.983886875
vt 0.000488125 0.983886875
vt 0.000488125 0.96972625
vt 0.01464875 0.96972625
vt 0.01464875 0.983886875
vt 0.000488125 0.983886875
vt 0.000488125 0.96972625
vt 0.01464875 0.96972625
vt 0.000488125 0.983886875
vt 0.000488125 0.96972625
vt 0.01464875 0.96972625
vt 0.000488125 0.983886875
vt 0.000488125 0.96972625
vt 0.01464875 0.96972625
vt 0.01464875 0.983886875
vt 0.000488125 0.983886875
vt 0.000488125 0.96972625
vt 0.01464875 0.96972625
vt 0.01464875 0.983886875
vt 0.000488125 0.983886875
vt 0.000488125 0.96972625
vt 0.01464875 0.96972625
vt 0.01464875 0.983886875
vt 0.000488125 0.983886875
vt 0.000488125 0.96972625
vt 0.01464875 0.96972625
vt 0.01464875 0.983886875
vt 0.000488125 0.983886875
vt 0.000488125 0.96972625
vt 0.01464875 0.96972625
vt 0.01464875 0.983886875
vt 0.000488125 0.983886875
vt 0.000488125 0.96972625
vt 0.01464875 0.96972625
vt 0.01464875 0.983886875
vt 0.000488125 0.983886875
vt 0.000488125 0.96972625
vt 0.01464875 0.96972625
vt 0.01464875 0.983886875
vt 0.000488125 0.983886875
vt 0.000488125 0.96972625
vt 0.01464875 0.96972625
vt 0.01464875 0.983886875
vt 0.000488125 0.983886875
vt 0.000488125 0.96972625
vt 0.01464875 0.96972625
vt 0.000488125 0.983886875
vt 0.000488125 0.96972625
vt 0.01464875 0.96972625
vt 0.000488125 0.983886875
vt 0.000488125 0.96972625
vt 0.01464875 0.96972625
vt 0.01464875 0.983886875
vt 0.000488125 0.983886875
vt 0.000488125 0.96972625
vt 0.01464875 0.96972625
vt 0.01464875 0.983886875
vt 0.000488125 0.983886875
vt 0.000488125 0.96972625
vt 0.01464875 0.96972625
vt 0.01464875 0.983886875
vt 0.000488125 0.983886875
vt 0.000488125 0.96972625
vt 0.01464875 0.96972625
vt 0.01464875 0.983886875
vt 0.000488125 0.983886875
vt 0.000488125 0.96972625
vt 0.01464875 0.96972625
vt 0.01464875 0.983886875
vt 0.000488125 0.983886875
vt 0.000488125 0.96972625
vt 0.01464875 0.96972625
vt 0.01464875 0.983886875
vt 0.000488125 0.983886875
vt 0.000488125 0.96972625
vt 0.01464875 0.96972625
vt 0.01464875 0.983886875
vt 0.000488125 0.983886875
vt 0.000488125 0.96972625
vt 0.01464875 0.96972625
vt 0.01464875 0.983886875
vt 0.000488125 0.983886875
vt 0.000488125 0.96972625
vt 0.01464875 0.96972625
vn -0.981627183447664 -0.19080899537654483 0
vn -0.04177736603710275 -0.3064046213077235 0.9509841532477146
vn -0.981627183447664 -0.19080899537654483 0
vn 0.00929565053251738 -0.5685037188194869 0.8226281739459153
vn -0.981627183447664 -0.19080899537654483 0
vn 0.05100137416075402 -0.7820602527118989 0.62111240606022
vn -0.981627183447664 -0.19080899537654483 0
vn 0.07958400936998238 -0.9279429321292321 0.36412676386665394
vn -0.981627183447664 -0.19080899537654483 0
vn 0.0924305619118209 -0.9929279633613686 0.07450268988237838
vn -0.981627183447664 -0.19080899537654483 0
vn 0.0883622618371467 -0.9710748133119665 -0.22182384370070107
vn -0.981627183447664 -0.19080899537654483 0
vn 0.0677377541109488 -0.8643800775455313 -0.49825563540253737
vn -0.981627183447664 -0.19080899537654483 0
vn 0.03244764250019805 -0.6825547058485016 -0.730113843191762
vn -0.981627183447664 -0.19080899537654483 0
vn -0.014299667130006924 -0.44198252957529166 -0.8969096738636492
vn -0.981627183447664 -0.19080899537654483 0
vn -0.06833120480408073 -0.16410937865711228 -0.9840726387248044
vn -0.981627183447664 -0.19080899537654483 0
vn -0.12484876334683671 0.12655749960362106 -0.9840711283158576
vn -0.981627183447664 -0.19080899537654483 0
vn -0.17888435788423715 0.40443287924926885 -0.8969026885267377
vn -0.981627183447664 -0.19080899537654483 0
vn -0.22566976593572985 0.6449917322744966 -0.730108774115239
vn -0.981627183447664 -0.19080899537654483 0
vn -0.2610530240888126 0.8267958688029698 -0.4982568714472771
vn -0.981627183447664 -0.19080899537654483 0
vn -0.2818725359029618 0.9334574915118412 -0.22182196700068907
vn -0.981627183447664 -0.19080899537654483 0
vn -0.2862441819514041 0.9552556825315157 0.07450402197344466
vn -0.981627183447664 -0.19080899537654483 0
vn -0.2737828249337174 0.8902005450597 0.3641235426977036
vn -0.981627183447664 -0.19080899537654483 0
vn -0.24561338251153514 0.7442367475988452 0.621116518742446
vn -0.981627183447664 -0.19080899537654483 0
vn -0.20428481214284605 0.5306023181300993 0.8226353356881329
vn -0.981627183447664 -0.19080899537654483 0
vn -0.153478066109312 0.2684532046890391 0.9509875709574395
vn -0.981627183447664 -0.19080899537654483 0
vn -0.09767520905028713 -0.01898550453870815 0.995037237571737
vn -0.04174050059075584 -0.30639432597016136 0.9509890891191779
vn -0.09767566314144185 -0.018986225596665122 0.9950371792387821
vn -0.1535159178353795 0.26843917288638575 0.9509854223021688
vn -0.20434730099316217 0.5305814888577383 0.8226332501536245
vn -0.24567873723398537 0.7442146741391513 0.6211171200885316
vn -0.2738250606185908 0.8901845688615934 0.36413084123419737
vn -0.28625464830455205 0.9552525327340277 0.07450419470917587
vn -0.28184379709086627 0.9334655885817054 -0.2218244102329881
vn -0.26099620580557975 0.8268101839858935 -0.49826288263556706
vn -0.22560163726280155 0.6450058247297572 -0.7301173791446339
vn -0.17882971445295126 0.4044399787481427 -0.8969103839397099
vn -0.12482847727322029 0.12655391674936192 -0.9840741625594308
vn -0.06835063697723529 -0.16410383403978465 -0.984072213853358
vn -0.014355605264638888 -0.4419890437089305 -0.8969055701905029
vn 0.0323815439485357 -0.6825593460052134 -0.7301124398285819
vn 0.06767749254305351 -0.8643823254648149 -0.498259924564603
vn 0.08833172511225669 -0.9710776114680127 -0.2218237562667092
vn 0.09244344916956343 -0.992926644998883 0.0745042707292472
vn 0.07962940548782621 -0.9279367724505527 0.36413253646949273
vn 0.05106521028132112 -0.7820490302885005 0.6211212913141366
vn 0.009355050036715551 -0.5684877888512093 0.8226385092893923
vn -0.9822444896831791 -0.16046135982723014 -0.09720038317531057
vn -0.9874468845586496 -0.133731740758803 -0.08405041159350382
vn -0.9916797981670299 -0.11204132653522855 -0.06338705747725813
vn -0.9945590160457725 -0.09733614358947323 -0.037121944361719034
vn -0.9953835006736919 -0.09331784229978829 0.022438067989431314
vn -0.9932738150306052 -0.10424557662124462 0.05039829490618988
vn -0.989692762735404 -0.1227219355537954 0.07380760071357033
vn -0.9849639269476536 -0.14707109657145231 0.0906430094664129
vn -0.9795040139968867 -0.17515971650755127 0.099453307018828
vn -0.9737917091359093 -0.20453768274508768 0.09946880694687515
vn -0.9683266950762807 -0.23264031946881175 0.09067465665828157
vn -0.9635907480513123 -0.25698264646103447 0.07384300703381033
vn -0.960008003691055 -0.2754010526408091 0.05038742951818369
vn -0.9578873248105695 -0.28626694911533396 0.02243004260917238
vn -0.9574291964044626 -0.2885680916382326 -0.007601997143755373
vn -0.9586683402881604 -0.28210635797079053 -0.03702723486300845
vn -0.9615015039279853 -0.2674250622393 -0.06323522776529933
vn -0.9656842269943654 -0.24580062270282485 -0.08388103249959943
vn -0.970850890613344 -0.21913627698161173 -0.09709706641251076
vn -0.9765406641252351 -0.18981394963216838 -0.10168085284300844
vn -0.9958289817308242 -0.09092001491888461 -0.007628239121831384
vn 0.9792338259672235 0.13859770855105616 0.14795874176942125
vn 0.9027636507511408 0.025311387172371164 0.42939157486131774
vn 0.7379247346474958 -0.09045765544226068 0.6687933152830644
vn 0.5008516081678804 -0.19736837831190718 0.8427297252608192
vn 0.214752348312454 -0.28495863275002165 0.9341734349228332
vn -0.09236714394487332 -0.3446584103604593 0.9341728378021212
vn -0.3904455566927131 -0.3706208461221039 0.842729171014421
vn -0.6503066901463981 -0.36029945473812086 0.6687940726907271
vn -0.8465086657475053 -0.3147167693509926 0.42939077063166237
vn -0.9598494087380354 -0.23832189005471932 0.14795874176942156
vn 0.9878754819532701 0.09414009996981493 0.12344907344029686
vn 0.9278431897004116 -0.10370899556556618 0.35826171936916096
vn 0.7769853187850805 -0.2914123819928419 0.5580077401019675
vn 0.5500732277332112 -0.4505862576091044 0.7031297665331689
vn 0.2693170160989851 -0.56565626633977 0.7794237186473674
vn -0.03780826807191018 -0.6253533347205933 0.7794252636521583
vn -0.34122638446954057 -0.6238375315654113 0.7031296386529441
vn -0.611243662683131 -0.5612552778225441 0.5580086898481508
vn -0.8214303912531482 -0.4437362365384506 0.35826005178974685
vn -0.9512076993429813 -0.28277948825430127 0.1234490734402971
vn 0.9945303433841552 0.05990385011218877 0.08556240313321531
vn 0.9471571783118753 -0.2030689315850249 0.24830684363746997
vn 0.8070665590801793 -0.4461699518144435 0.38675049232338016
vn 0.5879779467515204 -0.6455908143896362 0.4873340071343191
vn 0.3113330542238669 -0.7818184654884228 0.5402144170317622
vn 0.0042114521872175245 -0.8415172077641725 0.5402138953296792
vn -0.30332086208233044 -0.8188424892573535 0.4873329789912159
vn -0.5811607712129695 -0.7160143437385005 0.3867500711879328
vn -0.802118390856457 -0.5430918820774386 0.24830886949811937
vn -0.9445528544855761 -0.3170157413334857 0.0855624031332155
vn 0.9984774697290338 0.03959767942432985 0.038402685162820756
vn 0.9586116224878092 -0.2619985235596351 0.11144743551944924
vn 0.8249074006550499 -0.5379549536522257 0.1735864285753954
vn 0.6104605792462897 -0.7612459476347029 0.21872925820755654
vn 0.3362543100487622 -0.9100244416576971 0.24246351180997888
vn 0.02913159450812599 -0.9697230702608837 0.2424634347798019
vn -0.28084164040262727 -0.9344970762391176 0.2187308563429087
vn -0.5633190918312113 -0.8077994456039648 0.17358472415620738
vn -0.790662909928501 -0.6020228675979746 0.11144787908482888
vn -0.9406057408777817 -0.33732191449718296 0.03840268516282084
vn 0.999288906493611 0.035423268059525614 -0.012917950254826357
vn 0.96096632864793 -0.2741133008032706 -0.037491512741613026
vn 0.828575994917852 -0.5568229829771479 -0.05839508775849665
vn 0.6150805146277009 -0.7850236428724717 -0.07357880575652866
vn 0.3413777073299922 -0.9363807221698051 -0.08156227122188846
vn 0.034254498396736256 -0.996079391854188 -0.08156270264636423
vn -0.27621750562168845 -0.958274268699204 -0.07358203270594306
vn -0.5596527565601427 -0.826667316613537 -0.058394689121596885
vn -0.7883080020098513 -0.6141376614387395 -0.03748902199034424
vn -0.9397943299240138 -0.34149633087910025 -0.012917950254826383
vn 0.9968767981619112 0.04783253012743929 -0.06283866920984035
vn 0.9539661868730666 -0.23810161657678203 -0.18236264553461737
vn 0.817672886329547 -0.5007323326600347 -0.2840390501152058
vn 0.6013439489396515 -0.7143410389267181 -0.35791386558606925
vn 0.32614845408143345 -0.858030536009289 -0.39675028062485757
vn 0.01902427549546115 -0.9177291098260768 -0.39675100241802747
vn -0.2899595143464865 -0.8875948647728321 -0.3579089773515716
vn -0.5705554931663469 -0.7705770619871739 -0.28403771009660356
vn -0.7953075968896312 -0.5781256840661546 -0.1823637018506713
vn -0.9422064534134621 -0.3290870717575545 -0.06283866920984049
vn 0.9915022694180549 0.07548203557384996 -0.10595146079443579
vn 0.938369161090005 -0.1578605298812147 -0.30747905720692975
vn 0.793379604783198 -0.3757567977482596 -0.47891088070749666
vn 0.5707307632080976 -0.5568676050101895 -0.6034607414058666
vn 0.29221667260101275 -0.6834639884143425 -0.6689442374329508
vn -0.014907974675652556 -0.7431662275482211 -0.6689407376762279
vn -0.32056616595027193 -0.7301171096599985 -0.6034619618747087
vn -0.594847882766165 -0.6455991836872078 -0.47891303009108216
vn -0.8109052279046444 -0.49788386223279946 -0.30748068408449275
vn -0.947580964181168 -0.3014375628169341 -0.10595146079443603
vn 0.9837482606470938 0.1153728539811442 -0.13758075533323508
vn 0.9158663570462487 -0.04209315386507925 -0.39927056293762
vn 0.7583305924582248 -0.19543889473541007 -0.6218829077620314
vn 0.5265662821095902 -0.32965451104717036 -0.7836171602839836
vn 0.24325556335825185 -0.4316009194863371 -0.8686468656443815
vn -0.0638620137057812 -0.491298950513919 -0.8686466395660347
vn -0.36473310924807023 -0.5029046019230541 -0.7836177131630256
vn -0.6298989646698768 -0.4652857715213313 -0.6218813754468105
vn -0.8334082185397526 -0.3821168289023308 -0.3992711739407477
vn -0.9553349360326928 -0.2615467372332283 -0.13758075533323538
vn 0.9744546553467711 0.16318432615265854 -0.15430165381844838
vn 0.8888950862291749 0.09666268876988257 -0.4477966617533058
vn 0.716321009915239 0.02067327545102833 -0.6974645700221183
vn 0.47363404913545304 -0.05733548135636225 -0.8788534747483163
vn 0.18457843554210346 -0.12973432770720902 -0.9742175349208143
vn -0.12253892462439327 -0.1894311928336392 -0.9742176528545979
vn -0.4176675940454743 -0.2305869697410226 -0.8788534748579641
vn -0.6719059547434145 -0.24916751568636897 -0.6974653662419544
vn -0.8603794170073289 -0.24336379788637982 -0.44779607040308683
vn -0.9646285479638881 -0.21373526635062495 -0.1543016538184487
vn 0.9646285479638882 0.2137352663506249 -0.15430165381844832
vn 0.8603793402242856 0.24336191363983944 -0.4477972419575385
vn 0.6719070688082672 0.24917068790187535 -0.6974631597267261
vn 0.4176675944024098 0.23058697032592407 -0.8788534745348714
vn 0.12253950219207982 0.18943198877450096 -0.9742174254402631
vn -0.18457900595948398 0.1297334949761223 -0.9742175377400518
vn -0.4736340494776036 0.0573354806953951 -0.8788534746070445
vn -0.7163220172624045 -0.020676996635479967 -0.6974634251308494
vn -0.8888950630605644 -0.09666052870757404 -0.4477971740157899
vn -0.9744546553467712 -0.1631843261526585 -0.1543016538184487
vn 0.9553349360326928 0.2615467372332282 -0.13758075533323508
vn 0.833408305223097 0.38211755662242963 -0.39927029654867846
vn 0.6298978568671706 0.4652837694938864 -0.6218839954201311
vn 0.36473386501989047 0.5029055017002074 -0.7836167839367117
vn 0.0638616101996903 0.4912984869008183 -0.8686469314466433
vn -0.2432551737897139 0.4316014548106352 -0.8686467087544162
vn -0.5265669533344719 0.32965317631600066 -0.7836172707392456
vn -0.7583297515544808 0.195442269823802 -0.6218828724715291
vn -0.9158663638986604 0.04209201545358205 -0.39927066723477467
vn -0.9837482606470938 -0.11537285398114402 -0.13758075533323535
vn 0.9475809641811681 0.30143756281693385 -0.10595146079443579
vn 0.8109055112408119 0.4978846476005063 -0.3074786651509293
vn 0.5948491357466292 0.6456002279606888 -0.47891006604434067
vn 0.32056737458562623 0.7301179404000299 -0.6034603147327066
vn 0.014903697516524733 0.7431627045962554 -0.668944746819582
vn -0.29221261203171023 0.6834686256713803 -0.668941273276272
vn -0.570731779444637 0.5568657844358815 -0.6034614602910184
vn -0.793380456487043 0.3757536891072571 -0.4789119087960729
vn -0.9383692085837944 0.15785853126768862 -0.30747993835018195
vn -0.991502269418055 -0.07548203557384968 -0.10595146079443603
vn 0.9422064534134623 0.3290870717575542 -0.06283866920984035
vn 0.7953078268865931 0.5781257414391343 -0.18236251692268438
vn 0.5705547414703137 0.7705770319597924 -0.284039301509106
vn 0.2899552082458918 0.8875939666442698 -0.35791469317111385
vn -0.019023519638389774 0.9177294592224463 -0.3967502304672853
vn -0.32614916517803216 0.8580299563432348 -0.3967509496791399
vn -0.6013404260226323 0.7143459662948519 -0.35790995022378663
vn -0.8176723945030266 0.500733699634631 -0.28403805610851174
vn -0.953966254510745 0.2381007239104587 -0.18236345721677968
vn -0.9968767981619112 -0.04783253012743896 -0.0628386692098405
vn 0.9397943299240139 0.3414963308790999 -0.012917950254826355
vn 0.7883073136538937 0.6141383893032851 -0.03749157270305709
vn 0.559652517600407 0.8266674492022195 -0.05839510230337984
vn 0.27622036746200884 0.9582736995844153 -0.07357870129290524
vn -0.03425405520691116 0.9960794428860481 -0.0815622655503274
vn -0.34137812372784593 0.9363805333035652 -0.08156269668289981
vn -0.615082853123704 0.785021519660007 -0.07358190989568886
vn -0.8285758355471784 0.5568232598335521 -0.05839470914074105
vn -0.9609660409843501 0.27411463433038824 -0.0374891360367535
vn -0.9992889064936111 -0.03542326805952528 -0.012917950254826387
vn 0.9406057408777818 0.33732191449718263 0.03840268516282075
vn 0.7906627495089847 0.6020231540782243 0.11144746965543514
vn 0.5633202798076321 0.8077982929177747 0.17358623308482887
vn 0.2808400659174422 0.9344978860365374 0.21872941816026892
vn -0.029131508134370515 0.9697230543703591 0.24246350871097858
vn -0.33625439163225923 0.9100244329043735 0.24246343152131788
vn -0.6104592669639621 0.7612464867588649 0.2187310443789535
vn -0.8249082385919052 0.5379543055457425 0.1735844550874254
vn -0.9586115367127467 0.26199862109563044 0.11144794401519773
vn -0.9984774697290337 -0.039597679424329485 0.03840268516282084
vn 0.9445528544855761 0.3170157413334854 0.08556240313321531
vn 0.8021173693247008 0.5430941224945867 0.24830726920381657
vn 0.5811611466403181 0.71601388123308 0.3867503633059077
vn 0.3033221102721912 0.8188415752217071 0.48733373791320694
vn -0.004210740319490119 0.8415169112367684 0.5402143627935957
vn -0.3113337335970686 0.7818185948371488 0.5402138383005157
vn -0.587979023880434 0.6455908483980011 0.4873326625020752
vn -0.8070668449629935 0.44616995366393364 0.386749893612142
vn -0.947156517481922 0.2030685468291415 0.24830967899020503
vn -0.9945303433841552 -0.05990385011218846 0.0855624031332155
vn 0.9512076993429815 0.2827794882543011 0.12344907344029686
vn 0.8214317447872057 0.4437329968127862 0.35826096102616417
vn 0.6112423993657495 0.5612569954587258 0.5580083460542911
vn 0.34122660699971913 0.6238373416192304 0.7031296991856558
vn 0.037805287852308245 0.6253550458304826 0.7794240353394032
vn -0.26931413235425444 0.5656550516101241 0.7794255966429529
vn -0.5500734285028872 0.45058633561038314 0.7031295594812426
vn -0.7769842693124919 0.29141176453825324 0.5580095238700095
vn -0.9278442163765569 0.10371055381245112 0.35825860933756776
vn -0.9878754819532699 -0.09414009996981468 0.1234490734402971
vn 0.9598494087380354 0.2383218900547192 0.14795874176942123
vn 0.846510359869561 0.3147126439456886 0.4293904544516808
vn 0.6503044399256719 0.36030252346754216 0.6687946074811606
vn 0.39044750668091305 0.3706191299501682 0.842729022308855
vn 0.092369376322202 0.3446569508268919 0.9341731555576606
vn -0.21475454314766523 0.2849598991509873 0.9341725440588033
vn -0.5008534579761722 0.1973695791133726 0.8427283446484525
vn -0.7379226855670067 0.09045562153811834 0.6687958512563675
vn -0.9027651318610515 -0.025308357520319708 0.42938863950449613
vn -0.9792338259672233 -0.13859770855105602 0.14795874176942156
vn 0.969541633632333 0.18845980246734154 0.15643504565000094
vn 0.8746367143366643 0.17001215491595917 0.4539895209310414
vn 0.694115238012894 0.1349223345421474 0.7071067811865479
vn 0.4456484547462924 0.08662528440033086 0.8910070229155346
vn 0.15356089325391747 0.029849213902160672 0.9876882486354093
vn -0.15356089325391747 -0.029849213902160672 0.9876882486354093
vn -0.445648454746292 -0.0866252844003308 0.8910070229155346
vn -0.6941152380128943 -0.13492233454214744 0.7071067811865476
vn -0.8746367143366645 -0.17001215491595922 0.45398952093104106
vn -0.9695416336323328 -0.18845980246734148 0.15643504565000127
usemtl m_2957c23c-d15a-c604-9e62-688d7ffcfe1f
f 87/146/39 86/147/39 85/148/39
f 128/149/40 130/150/40 129/151/40 131/152/40
f 88/153/41 87/154/41 85/155/41
f 131/156/42 129/157/42 132/158/42 133/159/42
f 89/160/43 88/161/43 85/162/43
f 133/163/44 132/164/44 134/165/44 135/166/44
f 90/167/45 89/168/45 85/169/45
f 135/170/46 134/171/46 136/172/46 137/173/46
f 91/174/47 90/175/47 85/176/47
f 137/177/48 136/178/48 140/179/48 138/180/48
f 92/181/49 91/182/49 85/183/49
f 138/184/50 140/185/50 139/186/50 141/187/50
f 93/188/51 92/189/51 85/190/51
f 141/191/52 139/192/52 142/193/52 143/194/52
f 94/195/53 93/196/53 85/197/53
f 143/198/54 142/199/54 144/200/54 145/201/54
f 95/202/55 94/203/55 85/204/55
f 145/205/56 144/206/56 146/207/56 147/208/56
f 96/209/57 95/210/57 85/211/57
f 147/212/58 146/213/58 148/214/58 149/215/58
f 97/216/59 96/217/59 85/218/59
f 149/219/60 148/220/60 150/221/60 151/222/60
f 98/223/61 97/224/61 85/225/61
f 151/226/62 150/227/62 152/228/62 153/229/62
f 99/230/63 98/231/63 85/232/63
f 153/233/64 152/234/64 154/235/64 155/236/64
f 100/237/65 99/238/65 85/239/65
f 155/240/66 154/241/66 156/242/66 157/243/66
f 101/244/67 100/245/67 85/246/67
f 157/247/68 156/248/68 158/249/68 159/250/68
f 102/251/69 101/252/69 85/253/69
f 159/254/70 158/255/70 160/256/70 161/257/70
f 103/258/71 102/259/71 85/260/71
f 161/261/72 160/262/72 162/263/72 163/264/72
f 104/265/73 103/266/73 85/267/73
f 163/268/74 162/269/74 164/270/74 165/271/74
f 105/272/75 104/273/75 85/274/75
f 165/275/76 164/276/76 166/277/76 167/278/76
f 106/279/77 105/280/77 85/281/77
f 167/282/78 166/283/78 168/284/78 169/285/78
f 86/286/79 106/287/79 85/288/79
f 169/289/80 168/290/80 130/291/80 128/292/80
f 87/293/81 107/294/81 108/295/81 86/296/81
f 86/297/82 108/298/82 109/299/82 106/300/82
f 106/301/83 109/302/83 110/303/83 105/304/83
f 105/305/84 110/306/84 111/307/84 104/308/84
f 104/309/85 111/310/85 112/311/85 103/312/85
f 103/313/86 112/314/86 113/315/86 102/316/86
f 102/317/87 113/318/87 114/319/87 101/320/87
f 101/321/88 114/322/88 115/323/88 100/324/88
f 100/325/89 115/326/89 116/327/89 99/328/89
f 99/329/90 116/330/90 117/331/90 98/332/90
f 98/333/91 117/334/91 118/335/91 97/336/91
f 97/337/92 118/338/92 119/339/92 96/340/92
f 96/341/93 119/342/93 120/343/93 95/344/93
f 95/345/94 120/346/94 121/347/94 94/348/94
f 94/349/95 121/350/95 122/351/95 93/352/95
f 93/353/96 122/354/96 123/355/96 92/356/96
f 92/357/97 123/358/97 124/359/97 91/360/97
f 91/361/98 124/362/98 125/363/98 90/364/98
f 90/365/99 125/366/99 126/367/99 89/368/99
f 89/369/100 126/370/100 127/371/100 88/372/100
f 88/373/101 127/374/101 107/375/101 87/376/101
f 129/377/102 130/378/102 108/379/102 107/380/102
f 132/381/103 129/382/103 107/383/103 127/384/103
f 134/385/104 132/386/104 127/387/104 126/388/104
f 136/389/105 134/390/105 126/391/105 125/392/105
f 139/393/106 140/394/106 124/395/106 123/396/106
f 142/397/107 139/398/107 123/399/107 122/400/107
f 144/401/108 142/402/108 122/403/108 121/404/108
f 146/405/109 144/406/109 121/407/109 120/408/109
f 148/409/110 146/410/110 120/411/110 119/412/110
f 150/413/111 148/414/111 119/415/111 118/416/111
f 152/417/112 150/418/112 118/419/112 117/420/112
f 154/421/113 152/422/113 117/423/113 116/424/113
f 156/425/114 154/426/114 116/427/114 115/428/114
f 158/429/115 156/430/115 115/431/115 114/432/115
f 160/433/116 158/434/116 114/435/116 113/436/116
f 162/437/117 160/438/117 113/439/117 112/440/117
f 164/441/118 162/442/118 112/443/118 111/444/118
f 166/445/119 164/446/119 111/447/119 110/448/119
f 168/449/120 166/450/120 110/451/120 109/452/120
f 130/453/121 168/454/121 109/455/121 108/456/121
f 140/457/122 136/458/122 125/459/122 124/460/122
f 172/461/123 181/462/123 171/463/123
f 172/464/124 173/465/124 182/466/124 181/467/124
f 173/468/125 174/469/125 183/470/125 182/471/125
f 174/472/126 175/473/126 184/474/126 183/475/126
f 175/476/127 176/477/127 185/478/127 184/479/127
f 176/480/128 177/481/128 186/482/128 185/483/128
f 177/484/129 178/485/129 187/486/129 186/487/129
f 178/488/130 179/489/130 188/490/130 187/491/130
f 179/492/131 180/493/131 189/494/131 188/495/131
f 189/496/132 180/497/132 170/498/132
f 181/499/133 190/500/133 171/501/133
f 181/502/134 182/503/134 191/504/134 190/505/134
f 182/506/135 183/507/135 192/508/135 191/509/135
f 183/510/136 184/511/136 193/512/136 192/513/136
f 184/514/137 185/515/137 194/516/137 193/517/137
f 185/518/138 186/519/138 195/520/138 194/521/138
f 186/522/139 187/523/139 196/524/139 195/525/139
f 187/526/140 188/527/140 197/528/140 196/529/140
f 188/530/141 189/531/141 198/532/141 197/533/141
f 198/534/142 189/535/142 170/536/142
f 190/537/143 199/538/143 171/539/143
f 190/540/144 191/541/144 200/542/144 199/543/144
f 191/544/145 192/545/145 201/546/145 200/547/145
f 192/548/146 193/549/146 202/550/146 201/551/146
f 193/552/147 194/553/147 203/554/147 202/555/147
f 194/556/148 195/557/148 204/558/148 203/559/148
f 195/560/149 196/561/149 205/562/149 204/563/149
f 196/564/150 197/565/150 206/566/150 205/567/150
f 197/568/151 198/569/151 207/570/151 206/571/151
f 207/572/152 198/573/152 170/574/152
f 199/575/153 208/576/153 171/577/153
f 199/578/154 200/579/154 209/580/154 208/581/154
f 200/582/155 201/583/155 210/584/155 209/585/155
f 201/586/156 202/587/156 211/588/156 210/589/156
f 202/590/157 203/591/157 212/592/157 211/593/157
f 203/594/158 204/595/158 213/596/158 212/597/158
f 204/598/159 205/599/159 214/600/159 213/601/159
f 205/602/160 206/603/160 215/604/160 214/605/160
f 206/606/161 207/607/161 216/608/161 215/609/161
f 216/610/162 207/611/162 170/612/162
f 208/613/163 217/614/163 171/615/163
f 208/616/164 209/617/164 218/618/164 217/619/164
f 209/620/165 210/621/165 219/622/165 218/623/165
f 210/624/166 211/625/166 220/626/166 219/627/166
f 211/628/167 212/629/167 221/630/167 220/631/167
f 212/632/168 213/633/168 222/634/168 221/635/168
f 213/636/169 214/637/169 223/638/169 222/639/169
f 214/640/170 215/641/170 224/642/170 223/643/170
f 215/644/171 216/645/171 225/646/171 224/647/171
f 225/648/172 216/649/172 170/650/172
f 217/651/173 226/652/173 171/653/173
f 217/654/174 218/655/174 227/656/174 226/657/174
f 218/658/175 219/659/175 228/660/175 227/661/175
f 219/662/176 220/663/176 229/664/176 228/665/176
f 220/666/177 221/667/177 230/668/177 229/669/177
f 221/670/178 222/671/178 231/672/178 230/673/178
f 222/674/179 223/675/179 232/676/179 231/677/179
f 223/678/180 224/679/180 233/680/180 232/681/180
f 224/682/181 225/683/181 234/684/181 233/685/181
f 234/686/182 225/687/182 170/688/182
f 226/689/183 235/690/183 171/691/183
f 226/692/184 227/693/184 236/694/184 235/695/184
f 227/696/185 228/697/185 237/698/185 236/699/185
f 228/700/186 229/701/186 238/702/186 237/703/186
f 229/704/187 230/705/187 239/706/187 238/707/187
f 230/708/188 231/709/188 240/710/188 239/711/188
f 231/712/189 232/713/189 84/714/189 240/715/189
f 232/716/190 233/717/190 241/718/190 84/719/190
f 233/720/191 234/721/191 242/722/191 241/723/191
f 242/724/192 234/725/192 170/726/192
f 235/727/193 243/728/193 171/729/193
f 235/730/194 236/731/194 244/732/194 243/733/194
f 236/734/195 237/735/195 245/736/195 244/737/195
f 237/738/196 238/739/196 246/740/196 245/741/196
f 238/742/197 239/743/197 247/744/197 246/745/197
f 239/746/198 240/747/198 248/748/198 247/749/198
f 240/750/199 84/751/199 249/752/199 248/753/199
f 84/754/200 241/755/200 250/756/200 249/757/200
f 241/758/201 242/759/201 251/760/201 250/761/201
f 251/762/202 242/763/202 170/764/202
f 243/765/203 252/766/203 171/767/203
f 243/768/204 244/769/204 253/770/204 252/771/204
f 244/772/205 245/773/205 254/774/205 253/775/205
f 245/776/206 246/777/206 255/778/206 254/779/206
f 246/780/207 247/781/207 256/782/207 255/783/207
f 247/784/208 248/785/208 257/786/208 256/787/208
f 248/788/209 249/789/209 258/790/209 257/791/209
f 249/792/210 250/793/210 259/794/210 258/795/210
f 250/796/211 251/797/211 260/798/211 259/799/211
f 260/800/212 251/801/212 170/802/212
f 252/803/213 261/804/213 171/805/213
f 252/806/214 253/807/214 262/808/214 261/809/214
f 253/810/215 254/811/215 263/812/215 262/813/215
f 254/814/216 255/815/216 264/816/216 263/817/216
f 255/818/217 256/819/217 265/820/217 264/821/217
f 256/822/218 257/823/218 266/824/218 265/825/218
f 257/826/219 258/827/219 267/828/219 266/829/219
f 258/830/220 259/831/220 268/832/220 267/833/220
f 259/834/221 260/835/221 269/836/221 268/837/221
f 269/838/222 260/839/222 170/840/222
f 261/841/223 270/842/223 171/843/223
f 261/844/224 262/845/224 271/846/224 270/847/224
f 262/848/225 263/849/225 272/850/225 271/851/225
f 263/852/226 264/853/226 273/854/226 272/855/226
f 264/856/227 265/857/227 274/858/227 273/859/227
f 265/860/228 266/861/228 275/862/228 274/863/228
f 266/864/229 267/865/229 276/866/229 275/867/229
f 267/868/230 268/869/230 277/870/230 276/871/230
f 268/872/231 269/873/231 278/874/231 277/875/231
f 278/876/232 269/877/232 170/878/232
f 270/879/233 279/880/233 171/881/233
f 270/882/234 271/883/234 280/884/234 279/885/234
f 271/886/235 272/887/235 281/888/235 280/889/235
f 272/890/236 273/891/236 282/892/236 281/893/236
f 273/894/237 274/895/237 283/896/237 282/897/237
f 274/898/238 275/899/238 284/900/238 283/901/238
f 275/902/239 276/903/239 285/904/239 284/905/239
f 276/906/240 277/907/240 286/908/240 285/909/240
f 277/910/241 278/911/241 287/912/241 286/913/241
f 287/914/242 278/915/242 170/916/242
f 279/917/243 288/918/243 171/919/243
f 279/920/244 280/921/244 289/922/244 288/923/244
f 280/924/245 281/925/245 290/926/245 289/927/245
f 281/928/246 282/929/246 291/930/246 290/931/246
f 282/932/247 283/933/247 292/934/247 291/935/247
f 283/936/248 284/937/248 293/938/248 292/939/248
f 284/940/249 285/941/249 294/942/249 293/943/249
f 285/944/250 286/945/250 295/946/250 294/947/250
f 286/948/251 287/949/251 296/950/251 295/951/251
f 296/952/252 287/953/252 170/954/252
f 288/955/253 297/956/253 171/957/253
f 288/958/254 289/959/254 298/960/254 297/961/254
f 289/962/255 290/963/255 299/964/255 298/965/255
f 290/966/256 291/967/256 300/968/256 299/969/256
f 291/970/257 292/971/257 301/972/257 300/973/257
f 292/974/258 293/975/258 302/976/258 301/977/258
f 293/978/259 294/979/259 303/980/259 302/981/259
f 294/982/260 295/983/260 304/984/260 303/985/260
f 295/986/261 296/987/261 305/988/261 304/989/261
f 305/990/262 296/991/262 170/992/262
f 297/993/263 306/994/263 171/995/263
f 297/996/264 298/997/264 307/998/264 306/999/264
f 298/1000/265 299/1001/265 308/1002/265 307/1003/265
f 299/1004/266 300/1005/266 309/1006/266 308/1007/266
f 300/1008/267 301/1009/267 310/1010/267 309/1011/267
f 301/1012/268 302/1013/268 311/1014/268 310/1015/268
f 302/1016/269 303/1017/269 312/1018/269 311/1019/269
f 303/1020/270 304/1021/270 313/1022/270 312/1023/270
f 304/1024/271 305/1025/271 314/1026/271 313/1027/271
f 314/1028/272 305/1029/272 170/1030/272
f 306/1031/273 315/1032/273 171/1033/273
f 306/1034/274 307/1035/274 316/1036/274 315/1037/274
f 307/1038/275 308/1039/275 317/1040/275 316/1041/275
f 308/1042/276 309/1043/276 318/1044/276 317/1045/276
f 309/1046/277 310/1047/277 319/1048/277 318/1049/277
f 310/1050/278 311/1051/278 320/1052/278 319/1053/278
f 311/1054/279 312/1055/279 321/1056/279 320/1057/279
f 312/1058/280 313/1059/280 322/1060/280 321/1061/280
f 313/1062/281 314/1063/281 323/1064/281 322/1065/281
f 323/1066/282 314/1067/282 170/1068/282
f 315/1069/283 324/1070/283 171/1071/283
f 315/1072/284 316/1073/284 325/1074/284 324/1075/284
f 316/1076/285 317/1077/285 326/1078/285 325/1079/285
f 317/1080/286 318/1081/286 327/1082/286 326/1083/286
f 318/1084/287 319/1085/287 328/1086/287 327/1087/287
f 319/1088/288 320/1089/288 329/1090/288 328/1091/288
f 320/1092/289 321/1093/289 330/1094/289 329/1095/289
f 321/1096/290 322/1097/290 331/1098/290 330/1099/290
f 322/1100/291 323/1101/291 332/1102/291 331/1103/291
f 332/1104/292 323/1105/292 170/1106/292
f 324/1107/293 333/1108/293 171/1109/293
f 324/1110/294 325/1111/294 334/1112/294 333/1113/294
f 325/1114/295 326/1115/295 335/1116/295 334/1117/295
f 326/1118/296 327/1119/296 336/1120/296 335/1121/296
f 327/1122/297 328/1123/297 337/1124/297 336/1125/297
f 328/1126/298 329/1127/298 338/1128/298 337/1129/298
f 329/1130/299 330/1131/299 339/1132/299 338/1133/299
f 330/1134/300 331/1135/300 340/1136/300 339/1137/300
f 331/1138/301 332/1139/301 341/1140/301 340/1141/301
f 341/1142/302 332/1143/302 170/1144/302
f 333/1145/303 172/1146/303 171/1147/303
f 333/1148/304 334/1149/304 173/1150/304 172/1151/304
f 334/1152/305 335/1153/305 174/1154/305 173/1155/305
f 335/1156/306 336/1157/306 175/1158/306 174/1159/306
f 336/1160/307 337/1161/307 176/1162/307 175/1163/307
f 337/1164/308 338/1165/308 177/1166/308 176/1167/308
f 338/1168/309 339/1169/309 178/1170/309 177/1171/309
f 339/1172/310 340/1173/310 179/1174/310 178/1175/310
f 340/1176/311 341/1177/311 180/1178/311 179/1179/311
f 180/1180/312 341/1181/312 170/1182/312