<?xml version="1.0" encoding="utf-8"?>
<COLLADA xmlns="http://www.collada.org/2005/11/COLLADASchema" version="1.4.1" xmlns:xsi="http://www.w3.org/2001/XMLSchema-instance">
  <asset>
    <contributor>
      <author>Blockbench user</author>
      <authoring_tool>Blockbench</authoring_tool>
    </contributor>
    <created>2026-07-15T22:15:43.770Z</created>
    <modified>2026-07-15T22:15:43.770Z</modified>
    <unit name="meter" meter="1.0"/>
    <up_axis>Y_UP</up_axis>
  </asset>
  <library_effects>
    <effect id="Material_0-effect">
      <profile_COMMON>
        <newparam sid="Image_0-surface">
          <surface type="2D">
            <init_from>Image_0</init_from>
          </surface>
        </newparam>
        <newparam sid="Image_0-sampler">
          <sampler2D>
            <source>Image_0-surface</source>
          </sampler2D>
        </newparam>
        <technique sid="common">
          <lambert>
            <emission>
              <color sid="emission">0 0 0 1</color>
            </emission>
            <diffuse>
              <texture texture="Image_0-sampler" texcoord="UVMap"/>
            </diffuse>
            <index_of_refraction>
              <float sid="ior">1.45</float>
            </index_of_refraction>
          </lambert>
        </technique>
      </profile_COMMON>
    </effect>
  </library_effects>
  <library_images>
    <image id="Image_0" name="Image_0">
      <init_from>texture.png</init_from>
    </image>
  </library_images>
  <library_materials>
    <material id="Material_0-material" name="Material_0">
      <instance_effect url="#Material_0-effect"/>
    </material>
  </library_materials>
  <library_geometries>
    <geometry id="89ed7e7f-7887-441a-8aae-d1cbc7a66eb1-mesh" name="Logo">
      <mesh>
        <source id="89ed7e7f-7887-441a-8aae-d1cbc7a66eb1-mesh-positions">
          <float_array id="89ed7e7f-7887-441a-8aae-d1cbc7a66eb1-mesh-positions-array" count="12">1.3125 -0.8125 -1.1875 1.3125 0.8125 -1.1875 -1.3125 -0.8125 -1.1875 -1.3125 0.8125 -1.1875</float_array>
          <technique_common>
            <accessor source="#89ed7e7f-7887-441a-8aae-d1cbc7a66eb1-mesh-positions-array" count="4" stride="3">
              <param name="X" type="float"/>
              <param name="Y" type="float"/>
              <param name="Z" type="float"/>
            </accessor>
          </technique_common>
        </source>
        <source id="89ed7e7f-7887-441a-8aae-d1cbc7a66eb1-mesh-normals">
          <float_array id="89ed7e7f-7887-441a-8aae-d1cbc7a66eb1-mesh-normals-array" count="3">0 0 1</float_array>
          <technique_common>
            <accessor source="#89ed7e7f-7887-441a-8aae-d1cbc7a66eb1-mesh-normals-array" count="1" stride="3">
              <param name="X" type="float"/>
              <param name="Y" type="float"/>
              <param name="Z" type="float"/>
            </accessor>
          </technique_common>
        </source>
        <source id="89ed7e7f-7887-441a-8aae-d1cbc7a66eb1-mesh-map-0">
          <float_array id="89ed7e7f-7887-441a-8aae-d1cbc7a66eb1-mesh-map-0-array" count="8">1 0 1 0.364453 0.404102 0.364453 0.404102 0</float_array>
          <technique_common>
            <accessor source="#89ed7e7f-7887-441a-8aae-d1cbc7a66eb1-mesh-map-0-array" count="4" stride="2">
              <param name="S" type="float"/>
              <param name="T" type="float"/>
            </accessor>
          </technique_common>
        </source>
        <vertices id="89ed7e7f-7887-441a-8aae-d1cbc7a66eb1-mesh-vertices">
          <input semantic="POSITION" source="#89ed7e7f-7887-441a-8aae-d1cbc7a66eb1-mesh-positions"/>
        </vertices>
        <polylist material="Material_0-material" count="6">
          <input semantic="VERTEX" source="#89ed7e7f-7887-441a-8aae-d1cbc7a66eb1-mesh-vertices" offset="0"/>
          <input semantic="NORMAL" source="#89ed7e7f-7887-441a-8aae-d1cbc7a66eb1-mesh-normals" offset="1"/>
          <input semantic="TEXCOORD" source="#89ed7e7f-7887-441a-8aae-d1cbc7a66eb1-mesh-map-0" offset="2" set="0"/>
          <vcount>4</vcount>
          <p>0 0 0 1 0 1 3 0 2 2 0 3</p>
        </polylist>
      </mesh>
    </geometry>
    <geometry id="1b5031d8-912d-1153-4e3e-fefb958e6da4-mesh" name="Mic">
      <mesh>
        <source id="1b5031d8-912d-1153-4e3e-fefb958e6da4-mesh-positions">
          <float_array id="1b5031d8-912d-1153-4e3e-fefb958e6da4-mesh-positions-array" count="774">0.25189 0.424858 -0.323628 0 -0.875 -0.001755 0.028657 -0.875 0.1875 0.083423 -0.875 0.170684 0.130777 -0.875 0.138546 0.166512 -0.875 0.093941 0.187451 -0.875 0.040834 0.191734 -0.875 -0.016057 0.178981 -0.875 -0.071679 0.150324 -0.875 -0.121086 0.108311 -0.875 -0.159891 0.056673 -0.875 -0.184644 0 -0.875 -0.193147 -0.056673 -0.875 -0.184644 -0.108311 -0.875 -0.159891 -0.150324 -0.875 -0.121086 -0.178981 -0.875 -0.071679 -0.191734 -0.875 -0.016057 -0.187451 -0.875 0.040834 -0.166512 -0.875 0.093941 -0.130777 -0.875 0.138546 -0.083423 -0.875 0.170684 -0.028657 -0.875 0.1875 0.132262 0.247468 0.273013 0.045433 0.247468 0.299747 -0.045433 0.247468 0.299747 -0.132262 0.247468 0.273013 -0.207339 0.247468 0.221921 -0.263993 0.247468 0.15101 -0.29719 0.247468 0.066582 -0.303981 0.247468 -0.023862 -0.283761 0.247468 -0.112287 -0.238328 0.247468 -0.190834 -0.171719 0.247468 -0.252524 -0.089851 0.247468 -0.291877 0 0.247468 -0.305394 0.089851 0.247468 -0.291877 0.171719 0.247468 -0.252524 0.238328 0.247468 -0.190834 0.283761 0.247468 -0.112287 0.303981 0.247468 -0.023862 0.29719 0.247468 0.066582 0.263993 0.247468 0.15101 0.207339 0.247468 0.221921 0.051965 0.371856 0.343246 0.145733 0.244326 0.301035 0.050059 0.244324 0.330493 0.151282 0.371859 0.312661 0.228467 0.244331 0.244732 0.237166 0.371864 0.254204 0.290908 0.244337 0.166578 0.301984 0.37187 0.173061 0.327501 0.244344 0.073513 0.33997 0.371877 0.076438 0.347741 0.371883 -0.027077 0.312699 0.244355 -0.123664 0.334988 0.244351 -0.026191 0.324604 0.371888 -0.128278 0.262623 0.244358 -0.210242 0.272621 0.37189 -0.218167 0.189214 0.244359 -0.278231 0.196418 0.371891 -0.288755 0.099002 0.244359 -0.321594 0.102771 0.371891 -0.333778 0 0.244359 -0.336489 0 0.371891 -0.349242 -0.099002 0.244358 -0.321594 -0.102771 0.37189 -0.333778 -0.189214 0.244357 -0.27823 -0.196418 0.371889 -0.288755 -0.262622 0.244356 -0.210242 -0.272621 0.371888 -0.218166 -0.312699 0.244354 -0.123664 -0.324604 0.371886 -0.128278 -0.334987 0.244351 -0.026191 -0.347741 0.371883 -0.027077 -0.327501 0.244346 0.073513 -0.33997 0.371878 0.076438 -0.290909 0.244339 0.166578 -0.301984 0.371872 0.173061 -0.228467 0.244333 0.244732 -0.237166 0.371866 0.254205 -0.145733 0.244328 0.301035 -0.151282 0.37186 0.312661 -0.050059 0.244325 0.330493 -0.051965 0.371857 0.343246 0 0.21875 0 0 1.21875 0 0.025783 1.194278 0.154509 0.049042 1.123259 0.293893 0.067501 1.012642 0.404509 0.079352 0.873259 0.475528 0.083435 0.71875 0.5 0.079352 0.564241 0.475528 0.067501 0.424858 0.404509 0.049042 0.314241 0.293893 0.025783 0.243222 0.154509 0.074555 1.194278 0.137765 0.141811 1.123259 0.262045 0.195187 1.012642 0.360674 0.229456 0.873259 0.423998 0.241264 0.71875 0.445818 0.229456 0.564241 0.423998 0.195187 0.424858 0.360674 0.141811 0.314241 0.262045 0.074555 0.243222 0.137765 0.115248 1.194278 0.106093 0.219214 1.123259 0.201801 0.301722 1.012642 0.277754 0.354695 0.873259 0.32652 0.372949 0.71875 0.343323 0.354695 0.564241 0.32652 0.301722 0.424858 0.277754 0.219214 0.314241 0.201801 0.115248 0.243222 0.106093 0.143451 1.194278 0.062924 0.272861 1.123259 0.119688 0.37556 1.012642 0.164736 0.441498 0.873259 0.193659 0.464218 0.71875 0.203625 0.441498 0.564241 0.193659 0.37556 0.424858 0.164736 0.272861 0.314241 0.119688 0.143451 0.243222 0.062924 0.15611 1.194278 0.012936 0.296939 1.123259 0.024605 0.408701 1.012642 0.033866 0.480457 0.873259 0.039812 0.505183 0.71875 0.041861 0.480457 0.564241 0.039812 0.408701 0.424858 0.033866 0.296939 0.314241 0.024605 0.15611 0.243222 0.012936 0.151852 1.194278 -0.038454 0.288839 1.123259 -0.073144 0.397553 1.012642 -0.100674 0.467351 0.873259 -0.118349 0.491402 0.71875 -0.12444 0.467351 0.564241 -0.118349 0.397553 0.424858 -0.100674 0.288839 0.314241 -0.073144 0.151852 0.243222 -0.038454 0.131138 1.194278 -0.085677 0.249439 1.123259 -0.162967 0.343324 1.012642 -0.224304 0.403601 0.873259 -0.263686 0.424371 0.71875 -0.277256 0.403601 0.564241 -0.263686 0.343324 0.424858 -0.224304 0.249439 0.314241 -0.162967 0.131138 0.243222 -0.085677 0.096213 1.194278 -0.123615 0.183009 1.123259 -0.235129 0.25189 1.012642 -0.323628 0.296114 0.873259 -0.380447 0.311352 0.71875 -0.400026 0.296114 0.564241 -0.380447 0.183009 0.314241 -0.235129 0.096213 0.243222 -0.123615 0.050863 1.194278 -0.148157 0.096746 1.123259 -0.281812 0.13316 1.012642 -0.387881 0.156539 0.873259 -0.455982 0.164594 0.71875 -0.479447 0.156539 0.564241 -0.455982 0.13316 0.424858 -0.387881 0.096746 0.314241 -0.281812 0.050863 0.243222 -0.148157 0 1.194278 -0.156645 0 1.123259 -0.297956 0 1.012642 -0.410102 0 0.873259 -0.482104 0 0.71875 -0.506914 0 0.564241 -0.482104 0 0.424858 -0.410102 0 0.314241 -0.297956 0 0.243222 -0.156645 -0.050863 1.194278 -0.148157 -0.096746 1.123259 -0.281812 -0.13316 1.012642 -0.387881 -0.156539 0.873259 -0.455982 -0.164594 0.71875 -0.479447 -0.156539 0.564241 -0.455982 -0.13316 0.424858 -0.387881 -0.096746 0.314241 -0.281812 -0.050863 0.243222 -0.148157 -0.096213 1.194278 -0.123615 -0.183009 1.123259 -0.235129 -0.25189 1.012642 -0.323628 -0.296114 0.873259 -0.380447 -0.311353 0.71875 -0.400026 -0.296114 0.564241 -0.380447 -0.25189 0.424858 -0.323628 -0.183009 0.314241 -0.235129 -0.096213 0.243222 -0.123615 -0.131138 1.194278 -0.085677 -0.249439 1.123259 -0.162967 -0.343324 1.012642 -0.224304 -0.403601 0.873259 -0.263686 -0.424371 0.71875 -0.277256 -0.403601 0.564241 -0.263686 -0.343324 0.424858 -0.224304 -0.249439 0.314241 -0.162967 -0.131138 0.243222 -0.085677 -0.151852 1.194278 -0.038454 -0.288839 1.123259 -0.073144 -0.397552 1.012642 -0.100674 -0.467351 0.873259 -0.118349 -0.491403 0.71875 -0.12444 -0.467351 0.564241 -0.118349 -0.397552 0.424858 -0.100674 -0.288839 0.314241 -0.073144 -0.151852 0.243222 -0.038454 -0.15611 1.194278 0.012936 -0.296939 1.123259 0.024605 -0.408701 1.012642 0.033866 -0.480457 0.873259 0.039812 -0.505182 0.71875 0.041861 -0.480457 0.564241 0.039812 -0.408701 0.424858 0.033866 -0.296939 0.314241 0.024605 -0.15611 0.243222 0.012936 -0.143451 1.194278 0.062924 -0.272861 1.123259 0.119688 -0.37556 1.012642 0.164736 -0.441497 0.873259 0.193659 -0.464218 0.71875 0.203625 -0.441497 0.564241 0.193659 -0.37556 0.424858 0.164736 -0.272861 0.314241 0.119688 -0.143451 0.243222 0.062924 -0.115247 1.194278 0.106093 -0.219214 1.123259 0.201801 -0.301722 1.012642 0.277754 -0.354695 0.873259 0.32652 -0.372949 0.71875 0.343323 -0.354695 0.564241 0.32652 -0.301722 0.424858 0.277754 -0.219214 0.314241 0.201801 -0.115247 0.243222 0.106093 -0.074555 1.194278 0.137765 -0.141811 1.123259 0.262045 -0.195187 1.012642 0.360674 -0.229456 0.873259 0.423998 -0.241264 0.71875 0.445818 -0.229456 0.564241 0.423998 -0.195187 0.424858 0.360674 -0.141811 0.314241 0.262045 -0.074555 0.243222 0.137765 -0.025783 1.194278 0.154509 -0.049042 1.123259 0.293893 -0.067501 1.012642 0.404509 -0.079352 0.873259 0.475528 -0.083435 0.71875 0.5 -0.079352 0.564241 0.475528 -0.067501 0.424858 0.404509 -0.049042 0.314241 0.293893 -0.025783 0.243222 0.154509</float_array>
          <technique_common>
            <accessor source="#1b5031d8-912d-1153-4e3e-fefb958e6da4-mesh-positions-array" count="258" stride="3">
              <param name="X" type="float"/>
              <param name="Y" type="float"/>
              <param name="Z" type="float"/>
            </accessor>
          </technique_common>
        </source>
        <source id="1b5031d8-912d-1153-4e3e-fefb958e6da4-mesh-normals">
          <float_array id="1b5031d8-912d-1153-4e3e-fefb958e6da4-mesh-normals-array" count="822">0 -1 0 0.292804 -0.099475 0.950984 0 -1 0 0.559832 -0.099351 0.822628 0 -1 0 0.777423 -0.09916 0.621112 0 -1 0 0.926079 -0.098938 0.364127 0 -1 0 0.992322 -0.098727 0.074503 0 -1 0 0.970094 -0.098551 -0.221824 0 -1 0 0.861424 -0.098438 -0.498256 0 -1 0 0.676206 -0.098386 -0.730114 0 -1 0 0.431134 -0.098371 -0.89691 0 -1 0 0.148056 -0.098389 -0.984073 0 -1 0 -0.148055 -0.098407 -0.984071 0 -1 0 -0.431135 -0.098428 -0.896903 0 -1 0 -0.676201 -0.098453 -0.730109 0 -1 0 -0.861417 -0.098497 -0.498257 0 -1 0 -0.970091 -0.098582 -0.221822 0 -1 0 -0.992323 -0.098714 0.074504 0 -1 0 -0.926085 -0.098894 0.364124 0 -1 0 -0.777428 -0.099094 0.621117 0 -1 0 -0.559833 -0.099288 0.822635 0 -1 0 -0.292806 -0.099435 0.950988 0 -1 0 -0.000001 -0.099503 0.995037 0.292801 -0.099436 0.950989 0 -0.099504 0.995037 -0.292799 -0.099475 0.950985 -0.559825 -0.099353 0.822633 -0.777419 -0.099162 0.621117 -0.926078 -0.098939 0.364131 -0.992322 -0.098725 0.074504 -0.970094 -0.098552 -0.221824 -0.86142 -0.098438 -0.498263 -0.676202 -0.098384 -0.730117 -0.431132 -0.098373 -0.89691 -0.148047 -0.098387 -0.984074 0.148047 -0.098407 -0.984072 0.431129 -0.098427 -0.896906 0.676197 -0.098452 -0.730112 0.861415 -0.098498 -0.49826 0.970091 -0.098582 -0.221824 0.992323 -0.098714 0.074504 0.926082 -0.098892 0.364133 0.777424 -0.099095 0.621121 0.559828 -0.099289 0.822639 -0.029908 -0.994815 -0.0972 -0.057139 -0.994822 -0.08405 -0.079239 -0.994838 -0.063387 -0.094223 -0.994859 -0.037122 -0.098325 -0.994901 0.022438 -0.087195 -0.994916 0.050398 -0.068375 -0.994926 0.073808 -0.043571 -0.99493 0.090643 -0.014957 -0.99493 0.099453 0.014972 -0.994928 0.099469 0.043601 -0.994926 0.090675 0.068399 -0.994921 0.073843 0.087163 -0.994919 0.050387 0.098234 -0.994911 0.02243 0.10058 -0.9949 -0.007602 0.094001 -0.994883 -0.037027 0.079049 -0.994863 -0.063235 0.057023 -0.994843 -0.083881 0.029863 -0.994827 -0.097097 -0.000006 -0.994817 -0.101681 -0.100764 -0.994881 -0.007628 0.050795 0.987688 0.147959 0.147409 0.891007 0.429392 0.229598 0.707107 0.668793 0.289309 0.45399 0.84273 0.3207 0.156434 0.934173 0.320702 -0.156434 0.934173 0.289311 -0.45399 0.842729 0.229595 -0.707107 0.668794 0.147413 -0.891007 0.429391 0.050795 -0.987688 0.147959 0.096085 0.987688 0.123449 0.278844 0.891007 0.358262 0.434314 0.707106 0.558008 0.547267 0.453991 0.70313 0.606652 0.156437 0.779424 0.60665 -0.156437 0.779425 0.547267 -0.453991 0.70313 0.434313 -0.707106 0.558009 0.278847 -0.891007 0.35826 0.096085 -0.987688 0.123449 0.130962 0.987688 0.085562 0.380064 0.891008 0.248307 0.591968 0.707105 0.38675 0.745921 0.453991 0.487334 0.826859 0.156435 0.540214 0.82686 -0.156435 0.540214 0.745922 -0.453991 0.487333 0.591968 -0.707105 0.38675 0.380062 -0.891008 0.248309 0.130962 -0.987688 0.085562 0.151648 0.987688 0.038403 0.440097 0.891008 0.111447 0.685471 0.707105 0.173586 0.863741 0.453992 0.218729 0.957465 0.156436 0.242464 0.957465 -0.156436 0.242463 0.863741 -0.453992 0.218731 0.685472 -0.707105 0.173585 0.440096 -0.891008 0.111448 0.151648 -0.987688 0.038403 0.155901 0.987688 -0.012918 0.452438 0.891007 -0.037492 0.704692 0.707106 -0.058395 0.887963 0.45399 -0.073579 0.984315 0.156436 -0.081562 0.984315 -0.156436 -0.081563 0.887963 -0.45399 -0.073582 0.704692 -0.707106 -0.058395 0.452438 -0.891008 -0.037489 0.155901 -0.987688 -0.012918 0.143259 0.987688 -0.062839 0.415752 0.891007 -0.182363 0.647552 0.707106 -0.284039 0.815958 0.453993 -0.357914 0.904498 0.156436 -0.39675 0.904498 -0.156436 -0.396751 0.81596 -0.453993 -0.357909 0.647552 -0.707106 -0.284038 0.415752 -0.891007 -0.182364 0.143259 -0.987688 -0.062839 0.115092 0.987688 -0.105951 0.334009 0.891007 -0.307479 0.520237 0.707105 -0.478911 0.655537 0.453989 -0.603461 0.726664 0.156437 -0.668944 0.726668 -0.156437 -0.668941 0.655536 -0.453989 -0.603462 0.520235 -0.707105 -0.478913 0.334008 -0.891007 -0.307481 0.115092 -0.987688 -0.105951 0.074455 0.987688 -0.137581 0.216075 0.891008 -0.399271 0.336544 0.707106 -0.621883 0.424071 0.453991 -0.783617 0.470087 0.156433 -0.868647 0.470087 -0.156433 -0.868647 0.42407 -0.453991 -0.783618 0.336547 -0.707107 -0.621881 0.216074 -0.891007 -0.399271 0.074455 -0.987688 -0.137581 0.025749 0.987688 -0.154302 0.074722 0.891008 -0.447797 0.116387 0.707105 -0.697465 0.146656 0.453992 -0.878853 0.16257 0.156433 -0.974218 0.162569 -0.156433 -0.974218 0.146656 -0.453992 -0.878853 0.116384 -0.707105 -0.697465 0.074724 -0.891008 -0.447796 0.025749 -0.987688 -0.154302 -0.025749 0.987688 -0.154302 -0.074723 0.891007 -0.447797 -0.116387 0.707106 -0.697463 -0.146656 0.453992 -0.878853 -0.16257 0.156433 -0.974217 -0.162569 -0.156433 -0.974218 -0.146656 -0.453992 -0.878853 -0.116384 -0.707107 -0.697463 -0.074725 -0.891007 -0.447797 -0.025749 -0.987688 -0.154302 -0.074455 0.987688 -0.137581 -0.216075 0.891008 -0.39927 -0.336545 0.707105 -0.621884 -0.424071 0.453992 -0.783617 -0.470087 0.156432 -0.868647 -0.470087 -0.156432 -0.868647 -0.42407 -0.453992 -0.783617 -0.336548 -0.707105 -0.621883 -0.216074 -0.891008 -0.399271 -0.074455 -0.987688 -0.137581 -0.115092 0.987688 -0.105951 -0.334009 0.891008 -0.307479 -0.520236 0.707106 -0.47891 -0.655536 0.453991 -0.60346 -0.726665 0.156432 -0.668945 -0.726668 -0.156432 -0.668941 -0.655535 -0.453991 -0.603461 -0.520234 -0.707107 -0.478912 -0.334008 -0.891008 -0.30748 -0.115092 -0.987688 -0.105951 -0.143259 0.987688 -0.062839 -0.415752 0.891007 -0.182363 -0.647552 0.707105 -0.284039 -0.81596 0.453989 -0.357915 -0.904498 0.156437 -0.39675 -0.904498 -0.156437 -0.396751 -0.815963 -0.453988 -0.35791 -0.647553 -0.707105 -0.284038 -0.415751 -0.891007 -0.182363 -0.143259 -0.987688 -0.062839 -0.155901 0.987688 -0.012918 -0.452439 0.891007 -0.037492 -0.704693 0.707106 -0.058395 -0.887962 0.453993 -0.073579 -0.984315 0.156436 -0.081562 -0.984315 -0.156436 -0.081563 -0.887962 -0.453993 -0.073582 -0.704693 -0.707106 -0.058395 -0.452439 -0.891007 -0.037489 -0.155901 -0.987688 -0.012918 -0.151648 0.987688 0.038403 -0.440097 0.891007 0.111447 -0.68547 0.707106 0.173586 -0.863742 0.453991 0.218729 -0.957465 0.156436 0.242464 -0.957465 -0.156436 0.242463 -0.863741 -0.453991 0.218731 -0.68547 -0.707106 0.173584 -0.440097 -0.891007 0.111448 -0.151648 -0.987688 0.038403 -0.130962 0.987688 0.085562 -0.380065 0.891007 0.248307 -0.591968 0.707105 0.38675 -0.745921 0.453992 0.487334 -0.826859 0.156436 0.540214 -0.82686 -0.156436 0.540214 -0.745921 -0.453992 0.487333 -0.591968 -0.707106 0.38675 -0.380064 -0.891007 0.24831 -0.130962 -0.987688 0.085562 -0.096085 0.987688 0.123449 -0.278844 0.891008 0.358261 -0.434315 0.707105 0.558008 -0.547267 0.453991 0.70313 -0.606652 0.156434 0.779424 -0.60665 -0.156434 0.779426 -0.547267 -0.453991 0.70313 -0.434313 -0.707105 0.55801 -0.278846 -0.891008 0.358259 -0.096085 -0.987688 0.123449 -0.050795 0.987688 0.147959 -0.147409 0.891008 0.42939 -0.229599 0.707105 0.668795 -0.289309 0.453991 0.842729 -0.3207 0.156436 0.934173 -0.320701 -0.156436 0.934173 -0.289311 -0.453991 0.842728 -0.229596 -0.707105 0.668796 -0.147412 -0.891008 0.429389 -0.050795 -0.987688 0.147959 0 0.987688 0.156435 0 0.891007 0.45399 0 0.707107 0.707107 0 0.45399 0.891007 0 0.156435 0.987688 0 -0.156435 0.987688 0 -0.45399 0.891007 0 -0.707107 0.707107 0 -0.891007 0.45399 0 -0.987688 0.156435</float_array>
          <technique_common>
            <accessor source="#1b5031d8-912d-1153-4e3e-fefb958e6da4-mesh-normals-array" count="274" stride="3">
              <param name="X" type="float"/>
              <param name="Y" type="float"/>
              <param name="Z" type="float"/>
            </accessor>
          </technique_common>
        </source>
        <source id="1b5031d8-912d-1153-4e3e-fefb958e6da4-mesh-map-0">
          <float_array id="1b5031d8-912d-1153-4e3e-fefb958e6da4-mesh-map-0-array" count="2074">0.014648 0.988242 0.014648 0.999023 0.000977 0.988242 0.031153 1 0.031153 0.984336 0.046778 0.984336 0.046778 1 0.014648 0.988242 0.014648 0.999023 0.000977 0.988242 0.031153 1 0.031153 0.984336 0.046778 0.984336 0.046778 1 0.014648 0.988242 0.014648 0.999023 0.000977 0.988242 0.031153 1 0.031153 0.984336 0.046778 0.984336 0.046778 1 0.014648 0.988242 0.014648 0.999023 0.000977 0.988242 0.031153 1 0.031153 0.984336 0.046778 0.984336 0.046778 1 0.014648 0.988242 0.014648 0.999023 0.000977 0.993633 0.031153 1 0.031153 0.984336 0.046778 0.984336 0.046778 1 0.000977 0.988242 0.014648 0.98959 0.000977 0.999023 0.031153 1 0.031153 0.984336 0.046778 0.984336 0.046778 1 0.000977 0.988242 0.014648 0.98959 0.000977 0.999023 0.031153 1 0.031153 0.984336 0.046778 0.984336 0.046778 1 0.000977 0.988242 0.014648 0.98959 0.000977 0.999023 0.031153 1 0.031153 0.984336 0.046778 0.984336 0.046778 1 0.000977 0.988242 0.014648 0.98959 0.000977 0.999023 0.031153 1 0.031153 0.984336 0.046778 0.984336 0.046778 1 0.000977 0.988242 0.014648 0.98959 0.000977 0.999023 0.031153 1 0.031153 0.984336 0.046778 0.984336 0.046778 1 0.000977 0.98959 0.014648 0.988242 0.014648 0.999023 0.031153 1 0.031153 0.984336 0.046778 0.984336 0.046778 1 0.000977 0.999023 0.000977 0.988242 0.014648 0.999023 0.031153 1 0.031153 0.984336 0.046778 0.984336 0.046778 1 0.000977 0.999023 0.000977 0.988242 0.014648 0.999023 0.031153 1 0.031153 0.984336 0.046778 0.984336 0.046778 1 0.000977 0.999023 0.000977 0.988242 0.014648 0.999023 0.031153 1 0.031153 0.984336 0.046778 0.984336 0.046778 1 0.000977 0.999023 0.000977 0.988242 0.014648 0.999023 0.031153 1 0.031153 0.984336 0.046778 0.984336 0.046778 1 0.000977 0.999023 0.000977 0.988242 0.014648 0.988242 0.031153 1 0.031153 0.984336 0.046778 0.984336 0.046778 1 0.014648 0.999023 0.000977 0.999023 0.014648 0.988242 0.031153 1 0.031153 0.984336 0.046778 0.984336 0.046778 1 0.014648 0.999023 0.000977 0.999023 0.014648 0.988242 0.031153 1 0.031153 0.984336 0.046778 0.984336 0.046778 1 0.014648 0.999023 0.000977 0.999023 0.014648 0.988242 0.031153 1 0.031153 0.984336 0.046778 0.984336 0.046778 1 0.014648 0.999023 0.000977 0.999023 0.014648 0.988242 0.031153 1 0.031153 0.984336 0.046778 0.984336 0.046778 1 0.014648 0.999023 0.000977 0.999023 0.007813 0.988242 0.031153 1 0.031153 0.984336 0.046778 0.984336 0.046778 1 0.014648 0.986894 0.014648 0.996328 0.000977 0.996328 0.000977 0.986894 0.014648 0.986894 0.014648 0.996328 0.000977 0.996328 0.000977 0.986894 0.014648 0.986894 0.014648 0.996328 0.000977 0.996328 0.000977 0.986894 0.014648 0.986894 0.014648 0.996328 0.000977 0.996328 0.000977 0.986894 0.014648 0.986894 0.014648 0.996328 0.000977 0.996328 0.000977 0.986894 0.015625 0.984512 0.015625 1 0 1 0 0.984512 0.015625 0.984512 0.015625 1 0 1 0 0.984512 0.014648 0.986894 0.014648 0.996328 0.000977 0.996328 0.000977 0.986894 0.014648 0.986894 0.014648 0.996328 0.000977 0.996328 0.000977 0.986894 0.014648 0.986894 0.014648 0.996328 0.000977 0.996328 0.000977 0.986894 0.014648 0.986894 0.014648 0.996328 0.000977 0.996328 0.000977 0.986894 0.014648 0.986894 0.014648 0.996328 0.000977 0.996328 0.000977 0.986894 0.014648 0.986894 0.014648 0.996328 0.000977 0.996328 0.000977 0.986894 0.014648 0.986894 0.014648 0.996328 0.000977 0.996328 0.000977 0.986894 0.014648 0.986894 0.014648 0.996328 0.000977 0.996328 0.000977 0.986894 0.014648 0.986894 0.014648 0.996328 0.000977 0.996328 0.000977 0.986894 0.014648 0.986894 0.014648 0.996328 0.000977 0.996328 0.000977 0.986894 0.014648 0.986894 0.014648 0.996328 0.000977 0.996328 0.000977 0.986894 0.014648 0.986894 0.014648 0.996328 0.000977 0.996328 0.000977 0.986894 0.014648 0.986894 0.014648 0.996328 0.000977 0.996328 0.000977 0.986894 0.014648 0.986894 0.014648 0.996328 0.000977 0.996328 0.000977 0.986894 0.016602 0.999023 0.016602 0.988242 0.030274 0.98959 0.030274 0.999023 0.016602 0.999023 0.016602 0.988242 0.030274 0.98959 0.030274 0.999023 0.016602 0.999023 0.016602 0.988242 0.030274 0.98959 0.030274 0.999023 0.016602 0.999023 0.016602 0.988242 0.030274 0.98959 0.030274 0.999023 0.016602 0.999023 0.016602 0.988242 0.030274 0.98959 0.030274 0.999023 0.016602 0.999023 0.016602 0.988242 0.030274 0.98959 0.030274 0.999023 0.016602 0.999023 0.016602 0.988242 0.030274 0.98959 0.030274 0.999023 0.016602 0.985547 0.030274 0.985547 0.030274 0.996328 0.016602 0.996328 0.016602 0.985547 0.030274 0.985547 0.030274 0.996328 0.016602 0.996328 0.016602 0.985547 0.030274 0.985547 0.030274 0.996328 0.016602 0.996328 0.016602 0.985547 0.030274 0.985547 0.030274 0.996328 0.016602 0.996328 0.016602 0.985547 0.030274 0.985547 0.030274 0.996328 0.016602 0.996328 0.016602 0.985547 0.030274 0.985547 0.030274 0.996328 0.016602 0.996328 0.016602 0.985547 0.030274 0.985547 0.030274 0.996328 0.016602 0.996328 0.016602 0.985547 0.030274 0.985547 0.030274 0.996328 0.016602 0.996328 0.016602 0.985547 0.030274 0.985547 0.030274 0.996328 0.016602 0.996328 0.016602 0.985547 0.030274 0.985547 0.030274 0.996328 0.016602 0.996328 0.016602 0.985547 0.030274 0.985547 0.030274 0.996328 0.016602 0.996328 0.016602 0.985547 0.030274 0.985547 0.030274 0.996328 0.016602 0.996328 0.016602 0.985547 0.030274 0.985547 0.030274 0.996328 0.016602 0.996328 0.016602 0.999023 0.016602 0.988242 0.030274 0.98959 0.030274 0.999023 0.000488 0.983887 0.000488 0.969726 0.014649 0.969726 0.000488 0.983887 0.000488 0.969726 0.014649 0.969726 0.014649 0.983887 0.000488 0.983887 0.000488 0.969726 0.014649 0.969726 0.014649 0.983887 0.000488 0.983887 0.000488 0.969726 0.014649 0.969726 0.014649 0.983887 0.000488 0.983887 0.000488 0.969726 0.014649 0.969726 0.014649 0.983887 0.000488 0.983887 0.000488 0.969726 0.014649 0.969726 0.014649 0.983887 0.000488 0.983887 0.000488 0.969726 0.014649 0.969726 0.014649 0.983887 0.000488 0.983887 0.000488 0.969726 0.014649 0.969726 0.014649 0.983887 0.000488 0.983887 0.000488 0.969726 0.014649 0.969726 0.014649 0.983887 0.000488 0.983887 0.000488 0.969726 0.014649 0.969726 0.000488 0.983887 0.000488 0.969726 0.014649 0.969726 0.000488 0.983887 0.000488 0.969726 0.014649 0.969726 0.014649 0.983887 0.000488 0.983887 0.000488 0.969726 0.014649 0.969726 0.014649 0.983887 0.000488 0.983887 0.000488 0.969726 0.014649 0.969726 0.014649 0.983887 0.000488 0.983887 0.000488 0.969726 0.014649 0.969726 0.014649 0.983887 0.000488 0.983887 0.000488 0.969726 0.014649 0.969726 0.014649 0.983887 0.000488 0.983887 0.000488 0.969726 0.014649 0.969726 0.014649 0.983887 0.000488 0.983887 0.000488 0.969726 0.014649 0.969726 0.014649 0.983887 0.000488 0.983887 0.000488 0.969726 0.014649 0.969726 0.014649 0.983887 0.000488 0.983887 0.000488 0.969726 0.014649 0.969726 0.000488 0.983887 0.000488 0.969726 0.014649 0.969726 0.000488 0.983887 0.000488 0.969726 0.014649 0.969726 0.014649 0.983887 0.000488 0.983887 0.000488 0.969726 0.014649 0.969726 0.014649 0.983887 0.000488 0.983887 0.000488 0.969726 0.014649 0.969726 0.014649 0.983887 0.000488 0.983887 0.000488 0.969726 0.014649 0.969726 0.014649 0.983887 0.000488 0.983887 0.000488 0.969726 0.014649 0.969726 0.014649 0.983887 0.000488 0.983887 0.000488 0.969726 0.014649 0.969726 0.014649 0.983887 0.000488 0.983887 0.000488 0.969726 0.014649 0.969726 0.014649 0.983887 0.000488 0.983887 0.000488 0.969726 0.014649 0.969726 0.014649 0.983887 0.000488 0.983887 0.000488 0.969726 0.014649 0.969726 0.000488 0.983887 0.000488 0.969726 0.014649 0.969726 0.000488 0.983887 0.000488 0.969726 0.014649 0.969726 0.014649 0.983887 0.000488 0.983887 0.000488 0.969726 0.014649 0.969726 0.014649 0.983887 0.000488 0.983887 0.000488 0.969726 0.014649 0.969726 0.014649 0.983887 0.000488 0.983887 0.000488 0.969726 0.014649 0.969726 0.014649 0.983887 0.000488 0.983887 0.000488 0.969726 0.014649 0.969726 0.014649 0.983887 0.000488 0.983887 0.000488 0.969726 0.014649 0.969726 0.014649 0.983887 0.000488 0.983887 0.000488 0.969726 0.014649 0.969726 0.014649 0.983887 0.000488 0.983887 0.000488 0.969726 0.014649 0.969726 0.014649 0.983887 0.000488 0.983887 0.000488 0.969726 0.014649 0.969726 0.000488 0.983887 0.000488 0.969726 0.014649 0.969726 0.000488 0.983887 0.000488 0.969726 0.014649 0.969726 0.014649 0.983887 0.000488 0.983887 0.000488 0.969726 0.014649 0.969726 0.014649 0.983887 0.000488 0.983887 0.000488 0.969726 0.014649 0.969726 0.014649 0.983887 0.000488 0.983887 0.000488 0.969726 0.014649 0.969726 0.014649 0.983887 0.000488 0.983887 0.000488 0.969726 0.014649 0.969726 0.014649 0.983887 0.000488 0.983887 0.000488 0.969726 0.014649 0.969726 0.014649 0.983887 0.000488 0.983887 0.000488 0.969726 0.014649 0.969726 0.014649 0.983887 0.000488 0.983887 0.000488 0.969726 0.014649 0.969726 0.014649 0.983887 0.000488 0.983887 0.000488 0.969726 0.014649 0.969726 0.000488 0.983887 0.000488 0.969726 0.014649 0.969726 0.000488 0.983887 0.000488 0.969726 0.014649 0.969726 0.014649 0.983887 0.000488 0.983887 0.000488 0.969726 0.014649 0.969726 0.014649 0.983887 0.000488 0.983887 0.000488 0.969726 0.014649 0.969726 0.014649 0.983887 0.000488 0.983887 0.000488 0.969726 0.014649 0.969726 0.014649 0.983887 0.000488 0.983887 0.000488 0.969726 0.014649 0.969726 0.014649 0.983887 0.000488 0.983887 0.000488 0.969726 0.014649 0.969726 0.014649 0.983887 0.000488 0.983887 0.000488 0.969726 0.014649 0.969726 0.014649 0.983887 0.000488 0.983887 0.000488 0.969726 0.014649 0.969726 0.014649 0.983887 0.000488 0.983887 0.000488 0.969726 0.014649 0.969726 0.000488 0.983887 0.000488 0.969726 0.014649 0.969726 0.000488 0.983887 0.000488 0.969726 0.014649 0.969726 0.014649 0.983887 0.000488 0.983887 0.000488 0.969726 0.014649 0.969726 0.014649 0.983887 0.000488 0.983887 0.000488 0.969726 0.014649 0.969726 0.014649 0.983887 0.000488 0.983887 0.000488 0.969726 0.014649 0.969726 0.014649 0.983887 0.000488 0.983887 0.000488 0.969726 0.014649 0.969726 0.014649 0.983887 0.000488 0.983887 0.000488 0.969726 0.014649 0.969726 0.014649 0.983887 0.000488 0.983887 0.000488 0.969726 0.014649 0.969726 0.014649 0.983887 0.000488 0.983887 0.000488 0.969726 0.014649 0.969726 0.014649 0.983887 0.000488 0.983887 0.000488 0.969726 0.014649 0.969726 0.000488 0.983887 0.000488 0.969726 0.014649 0.969726 0.000488 0.983887 0.000488 0.969726 0.014649 0.969726 0.014649 0.983887 0.000488 0.983887 0.000488 0.969726 0.014649 0.969726 0.014649 0.983887 0.000488 0.983887 0.000488 0.969726 0.014649 0.969726 0.014649 0.983887 0.000488 0.983887 0.000488 0.969726 0.014649 0.969726 0.014649 0.983887 0.000488 0.983887 0.000488 0.969726 0.014649 0.969726 0.014649 0.983887 0.000488 0.983887 0.000488 0.969726 0.014649 0.969726 0.014649 0.983887 0.000488 0.983887 0.000488 0.969726 0.014649 0.969726 0.014649 0.983887 0.000488 0.983887 0.000488 0.969726 0.014649 0.969726 0.014649 0.983887 0.000488 0.983887 0.000488 0.969726 0.014649 0.969726 0.000488 0.983887 0.000488 0.969726 0.014649 0.969726 0.000488 0.983887 0.000488 0.969726 0.014649 0.969726 0.014649 0.983887 0.000488 0.983887 0.000488 0.969726 0.014649 0.969726 0.014649 0.983887 0.000488 0.983887 0.000488 0.969726 0.014649 0.969726 0.014649 0.983887 0.000488 0.983887 0.000488 0.969726 0.014649 0.969726 0.014649 0.983887 0.000488 0.983887 0.000488 0.969726 0.014649 0.969726 0.014649 0.983887 0.000488 0.983887 0.000488 0.969726 0.014649 0.969726 0.014649 0.983887 0.000488 0.983887 0.000488 0.969726 0.014649 0.969726 0.014649 0.983887 0.000488 0.983887 0.000488 0.969726 0.014649 0.969726 0.014649 0.983887 0.000488 0.983887 0.000488 0.969726 0.014649 0.969726 0.000488 0.983887 0.000488 0.969726 0.014649 0.969726 0.000488 0.983887 0.000488 0.969726 0.014649 0.969726 0.014649 0.983887 0.000488 0.983887 0.000488 0.969726 0.014649 0.969726 0.014649 0.983887 0.000488 0.983887 0.000488 0.969726 0.014649 0.969726 0.014649 0.983887 0.000488 0.983887 0.000488 0.969726 0.014649 0.969726 0.014649 0.983887 0.000488 0.983887 0.000488 0.969726 0.014649 0.969726 0.014649 0.983887 0.000488 0.983887 0.000488 0.969726 0.014649 0.969726 0.014649 0.983887 0.000488 0.983887 0.000488 0.969726 0.014649 0.969726 0.014649 0.983887 0.000488 0.983887 0.000488 0.969726 0.014649 0.969726 0.014649 0.983887 0.000488 0.983887 0.000488 0.969726 0.014649 0.969726 0.000488 0.983887 0.000488 0.969726 0.014649 0.969726 0.000488 0.983887 0.000488 0.969726 0.014649 0.969726 0.014649 0.983887 0.000488 0.983887 0.000488 0.969726 0.014649 0.969726 0.014649 0.983887 0.000488 0.983887 0.000488 0.969726 0.014649 0.969726 0.014649 0.983887 0.000488 0.983887 0.000488 0.969726 0.014649 0.969726 0.014649 0.983887 0.000488 0.983887 0.000488 0.969726 0.014649 0.969726 0.014649 0.983887 0.000488 0.983887 0.000488 0.969726 0.014649 0.969726 0.014649 0.983887 0.000488 0.983887 0.000488 0.969726 0.014649 0.969726 0.014649 0.983887 0.000488 0.983887 0.000488 0.969726 0.014649 0.969726 0.014649 0.983887 0.000488 0.983887 0.000488 0.969726 0.014649 0.969726 0.000488 0.983887 0.000488 0.969726 0.014649 0.969726 0.000488 0.983887 0.000488 0.969726 0.014649 0.969726 0.014649 0.983887 0.000488 0.983887 0.000488 0.969726 0.014649 0.969726 0.014649 0.983887 0.000488 0.983887 0.000488 0.969726 0.014649 0.969726 0.014649 0.983887 0.000488 0.983887 0.000488 0.969726 0.014649 0.969726 0.014649 0.983887 0.000488 0.983887 0.000488 0.969726 0.014649 0.969726 0.014649 0.983887 0.000488 0.983887 0.000488 0.969726 0.014649 0.969726 0.014649 0.983887 0.000488 0.983887 0.000488 0.969726 0.014649 0.969726 0.014649 0.983887 0.000488 0.983887 0.000488 0.969726 0.014649 0.969726 0.014649 0.983887 0.000488 0.983887 0.000488 0.969726 0.014649 0.969726 0.000488 0.983887 0.000488 0.969726 0.014649 0.969726 0.000488 0.983887 0.000488 0.969726 0.014649 0.969726 0.014649 0.983887 0.000488 0.983887 0.000488 0.969726 0.014649 0.969726 0.014649 0.983887 0.000488 0.983887 0.000488 0.969726 0.014649 0.969726 0.014649 0.983887 0.000488 0.983887 0.000488 0.969726 0.014649 0.969726 0.014649 0.983887 0.000488 0.983887 0.000488 0.969726 0.014649 0.969726 0.014649 0.983887 0.000488 0.983887 0.000488 0.969726 0.014649 0.969726 0.014649 0.983887 0.000488 0.983887 0.000488 0.969726 0.014649 0.969726 0.014649 0.983887 0.000488 0.983887 0.000488 0.969726 0.014649 0.969726 0.014649 0.983887 0.000488 0.983887 0.000488 0.969726 0.014649 0.969726 0.000488 0.983887 0.000488 0.969726 0.014649 0.969726 0.000488 0.983887 0.000488 0.969726 0.014649 0.969726 0.014649 0.983887 0.000488 0.983887 0.000488 0.969726 0.014649 0.969726 0.014649 0.983887 0.000488 0.983887 0.000488 0.969726 0.014649 0.969726 0.014649 0.983887 0.000488 0.983887 0.000488 0.969726 0.014649 0.969726 0.014649 0.983887 0.000488 0.983887 0.000488 0.969726 0.014649 0.969726 0.014649 0.983887 0.000488 0.983887 0.000488 0.969726 0.014649 0.969726 0.014649 0.983887 0.000488 0.983887 0.000488 0.969726 0.014649 0.969726 0.014649 0.983887 0.000488 0.983887 0.000488 0.969726 0.014649 0.969726 0.014649 0.983887 0.000488 0.983887 0.000488 0.969726 0.014649 0.969726 0.000488 0.983887 0.000488 0.969726 0.014649 0.969726 0.000488 0.983887 0.000488 0.969726 0.014649 0.969726 0.014649 0.983887 0.000488 0.983887 0.000488 0.969726 0.014649 0.969726 0.014649 0.983887 0.000488 0.983887 0.000488 0.969726 0.014649 0.969726 0.014649 0.983887 0.000488 0.983887 0.000488 0.969726 0.014649 0.969726 0.014649 0.983887 0.000488 0.983887 0.000488 0.969726 0.014649 0.969726 0.014649 0.983887 0.000488 0.983887 0.000488 0.969726 0.014649 0.969726 0.014649 0.983887 0.000488 0.983887 0.000488 0.969726 0.014649 0.969726 0.014649 0.983887 0.000488 0.983887 0.000488 0.969726 0.014649 0.969726 0.014649 0.983887 0.000488 0.983887 0.000488 0.969726 0.014649 0.969726 0.000488 0.983887 0.000488 0.969726 0.014649 0.969726 0.000488 0.983887 0.000488 0.969726 0.014649 0.969726 0.014649 0.983887 0.000488 0.983887 0.000488 0.969726 0.014649 0.969726 0.014649 0.983887 0.000488 0.983887 0.000488 0.969726 0.014649 0.969726 0.014649 0.983887 0.000488 0.983887 0.000488 0.969726 0.014649 0.969726 0.014649 0.983887 0.000488 0.983887 0.000488 0.969726 0.014649 0.969726 0.014649 0.983887 0.000488 0.983887 0.000488 0.969726 0.014649 0.969726 0.014649 0.983887 0.000488 0.983887 0.000488 0.969726 0.014649 0.969726 0.014649 0.983887 0.000488 0.983887 0.000488 0.969726 0.014649 0.969726 0.014649 0.983887 0.000488 0.983887 0.000488 0.969726 0.014649 0.969726 0.000488 0.983887 0.000488 0.969726 0.014649 0.969726 0.000488 0.983887 0.000488 0.969726 0.014649 0.969726 0.014649 0.983887 0.000488 0.983887 0.000488 0.969726 0.014649 0.969726 0.014649 0.983887 0.000488 0.983887 0.000488 0.969726 0.014649 0.969726 0.014649 0.983887 0.000488 0.983887 0.000488 0.969726 0.014649 0.969726 0.014649 0.983887 0.000488 0.983887 0.000488 0.969726 0.014649 0.969726 0.014649 0.983887 0.000488 0.983887 0.000488 0.969726 0.014649 0.969726 0.014649 0.983887 0.000488 0.983887 0.000488 0.969726 0.014649 0.969726 0.014649 0.983887 0.000488 0.983887 0.000488 0.969726 0.014649 0.969726 0.014649 0.983887 0.000488 0.983887 0.000488 0.969726 0.014649 0.969726 0.000488 0.983887 0.000488 0.969726 0.014649 0.969726 0.000488 0.983887 0.000488 0.969726 0.014649 0.969726 0.014649 0.983887 0.000488 0.983887 0.000488 0.969726 0.014649 0.969726 0.014649 0.983887 0.000488 0.983887 0.000488 0.969726 0.014649 0.969726 0.014649 0.983887 0.000488 0.983887 0.000488 0.969726 0.014649 0.969726 0.014649 0.983887 0.000488 0.983887 0.000488 0.969726 0.014649 0.969726 0.014649 0.983887 0.000488 0.983887 0.000488 0.969726 0.014649 0.969726 0.014649 0.983887 0.000488 0.983887 0.000488 0.969726 0.014649 0.969726 0.014649 0.983887 0.000488 0.983887 0.000488 0.969726 0.014649 0.969726 0.014649 0.983887 0.000488 0.983887 0.000488 0.969726 0.014649 0.969726 0.000488 0.983887 0.000488 0.969726 0.014649 0.969726 0.000488 0.983887 0.000488 0.969726 0.014649 0.969726 0.014649 0.983887 0.000488 0.983887 0.000488 0.969726 0.014649 0.969726 0.014649 0.983887 0.000488 0.983887 0.000488 0.969726 0.014649 0.969726 0.014649 0.983887 0.000488 0.983887 0.000488 0.969726 0.014649 0.969726 0.014649 0.983887 0.000488 0.983887 0.000488 0.969726 0.014649 0.969726 0.014649 0.983887 0.000488 0.983887 0.000488 0.969726 0.014649 0.969726 0.014649 0.983887 0.000488 0.983887 0.000488 0.969726 0.014649 0.969726 0.014649 0.983887 0.000488 0.983887 0.000488 0.969726 0.014649 0.969726 0.014649 0.983887 0.000488 0.983887 0.000488 0.969726 0.014649 0.969726</float_array>
          <technique_common>
            <accessor source="#1b5031d8-912d-1153-4e3e-fefb958e6da4-mesh-map-0-array" count="1037" stride="2">
              <param name="S" type="float"/>
              <param name="T" type="float"/>
            </accessor>
          </technique_common>
        </source>
        <vertices id="1b5031d8-912d-1153-4e3e-fefb958e6da4-mesh-vertices">
          <input semantic="POSITION" source="#1b5031d8-912d-1153-4e3e-fefb958e6da4-mesh-positions"/>
        </vertices>
        <polylist material="Material_0-material" count="6">
          <input semantic="VERTEX" source="#1b5031d8-912d-1153-4e3e-fefb958e6da4-mesh-vertices" offset="0"/>
          <input semantic="NORMAL" source="#1b5031d8-912d-1153-4e3e-fefb958e6da4-mesh-normals" offset="1"/>
          <input semantic="TEXCOORD" source="#1b5031d8-912d-1153-4e3e-fefb958e6da4-mesh-map-0" offset="2" set="0"/>
          <vcount>3 4 3 4 3 4 3 4 3 4 3 4 3 4 3 4 3 4 3 4 3 4 3 4 3 4 3 4 3 4 3 4 3 4 3 4 3 4 3 4 3 4 4 4 4 4 4 4 4 4 4 4 4 4 4 4 4 4 4 4 4 4 4 4 4 4 4 4 4 4 4 4 4 4 4 4 4 4 4 4 4 4 4 4 3 4 4 4 4 4 4 4 4 3 3 4 4 4 4 4 4 4 4 3 3 4 4 4 4 4 4 4 4 3 3 4 4 4 4 4 4 4 4 3 3 4 4 4 4 4 4 4 4 3 3 4 4 4 4 4 4 4 4 3 3 4 4 4 4 4 4 4 4 3 3 4 4 4 4 4 4 4 4 3 3 4 4 4 4 4 4 4 4 3 3 4 4 4 4 4 4 4 4 3 3 4 4 4 4 4 4 4 4 3 3 4 4 4 4 4 4 4 4 3 3 4 4 4 4 4 4 4 4 3 3 4 4 4 4 4 4 4 4 3 3 4 4 4 4 4 4 4 4 3 3 4 4 4 4 4 4 4 4 3 3 4 4 4 4 4 4 4 4 3 3 4 4 4 4 4 4 4 4 3 3 4 4 4 4 4 4 4 4 3</vcount>
          <p>3 0 0 2 0 1 1 0 2 44 1 3 46 1 4 45 1 5 47 1 6 4 2 7 3 2 8 1 2 9 47 3 10 45 3 11 48 3 12 49 3 13 5 4 14 4 4 15 1 4 16 49 5 17 48 5 18 50 5 19 51 5 20 6 6 21 5 6 22 1 6 23 51 7 24 50 7 25 52 7 26 53 7 27 7 8 28 6 8 29 1 8 30 53 9 31 52 9 32 56 9 33 54 9 34 8 10 35 7 10 36 1 10 37 54 11 38 56 11 39 55 11 40 57 11 41 9 12 42 8 12 43 1 12 44 57 13 45 55 13 46 58 13 47 59 13 48 10 14 49 9 14 50 1 14 51 59 15 52 58 15 53 60 15 54 61 15 55 11 16 56 10 16 57 1 16 58 61 17 59 60 17 60 62 17 61 63 17 62 12 18 63 11 18 64 1 18 65 63 19 66 62 19 67 64 19 68 65 19 69 13 20 70 12 20 71 1 20 72 65 21 73 64 21 74 66 21 75 67 21 76 14 22 77 13 22 78 1 22 79 67 23 80 66 23 81 68 23 82 69 23 83 15 24 84 14 24 85 1 24 86 69 25 87 68 25 88 70 25 89 71 25 90 16 26 91 15 26 92 1 26 93 71 27 94 70 27 95 72 27 96 73 27 97 17 28 98 16 28 99 1 28 100 73 29 101 72 29 102 74 29 103 75 29 104 18 30 105 17 30 106 1 30 107 75 31 108 74 31 109 76 31 110 77 31 111 19 32 112 18 32 113 1 32 114 77 33 115 76 33 116 78 33 117 79 33 118 20 34 119 19 34 120 1 34 121 79 35 122 78 35 123 80 35 124 81 35 125 21 36 126 20 36 127 1 36 128 81 37 129 80 37 130 82 37 131 83 37 132 22 38 133 21 38 134 1 38 135 83 39 136 82 39 137 84 39 138 85 39 139 2 40 140 22 40 141 1 40 142 85 41 143 84 41 144 46 41 145 44 41 146 3 42 147 23 42 148 24 42 149 2 42 150 2 43 151 24 43 152 25 43 153 22 43 154 22 44 155 25 44 156 26 44 157 21 44 158 21 45 159 26 45 160 27 45 161 20 45 162 20 46 163 27 46 164 28 46 165 19 46 166 19 47 167 28 47 168 29 47 169 18 47 170 18 48 171 29 48 172 30 48 173 17 48 174 17 49 175 30 49 176 31 49 177 16 49 178 16 50 179 31 50 180 32 50 181 15 50 182 15 51 183 32 51 184 33 51 185 14 51 186 14 52 187 33 52 188 34 52 189 13 52 190 13 53 191 34 53 192 35 53 193 12 53 194 12 54 195 35 54 196 36 54 197 11 54 198 11 55 199 36 55 200 37 55 201 10 55 202 10 56 203 37 56 204 38 56 205 9 56 206 9 57 207 38 57 208 39 57 209 8 57 210 8 58 211 39 58 212 40 58 213 7 58 214 7 59 215 40 59 216 41 59 217 6 59 218 6 60 219 41 60 220 42 60 221 5 60 222 5 61 223 42 61 224 43 61 225 4 61 226 4 62 227 43 62 228 23 62 229 3 62 230 45 63 231 46 63 232 24 63 233 23 63 234 48 64 235 45 64 236 23 64 237 43 64 238 50 65 239 48 65 240 43 65 241 42 65 242 52 66 243 50 66 244 42 66 245 41 66 246 55 67 247 56 67 248 40 67 249 39 67 250 58 68 251 55 68 252 39 68 253 38 68 254 60 69 255 58 69 256 38 69 257 37 69 258 62 70 259 60 70 260 37 70 261 36 70 262 64 71 263 62 71 264 36 71 265 35 71 266 66 72 267 64 72 268 35 72 269 34 72 270 68 73 271 66 73 272 34 73 273 33 73 274 70 74 275 68 74 276 33 74 277 32 74 278 72 75 279 70 75 280 32 75 281 31 75 282 74 76 283 72 76 284 31 76 285 30 76 286 76 77 287 74 77 288 30 77 289 29 77 290 78 78 291 76 78 292 29 78 293 28 78 294 80 79 295 78 79 296 28 79 297 27 79 298 82 80 299 80 80 300 27 80 301 26 80 302 84 81 303 82 81 304 26 81 305 25 81 306 46 82 307 84 82 308 25 82 309 24 82 310 56 83 311 52 83 312 41 83 313 40 83 314 88 84 315 97 84 316 87 84 317 88 85 318 89 85 319 98 85 320 97 85 321 89 86 322 90 86 323 99 86 324 98 86 325 90 87 326 91 87 327 100 87 328 99 87 329 91 88 330 92 88 331 101 88 332 100 88 333 92 89 334 93 89 335 102 89 336 101 89 337 93 90 338 94 90 339 103 90 340 102 90 341 94 91 342 95 91 343 104 91 344 103 91 345 95 92 346 96 92 347 105 92 348 104 92 349 105 93 350 96 93 351 86 93 352 97 94 353 106 94 354 87 94 355 97 95 356 98 95 357 107 95 358 106 95 359 98 96 360 99 96 361 108 96 362 107 96 363 99 97 364 100 97 365 109 97 366 108 97 367 100 98 368 101 98 369 110 98 370 109 98 371 101 99 372 102 99 373 111 99 374 110 99 375 102 100 376 103 100 377 112 100 378 111 100 379 103 101 380 104 101 381 113 101 382 112 101 383 104 102 384 105 102 385 114 102 386 113 102 387 114 103 388 105 103 389 86 103 390 106 104 391 115 104 392 87 104 393 106 105 394 107 105 395 116 105 396 115 105 397 107 106 398 108 106 399 117 106 400 116 106 401 108 107 402 109 107 403 118 107 404 117 107 405 109 108 406 110 108 407 119 108 408 118 108 409 110 109 410 111 109 411 120 109 412 119 109 413 111 110 414 112 110 415 121 110 416 120 110 417 112 111 418 113 111 419 122 111 420 121 111 421 113 112 422 114 112 423 123 112 424 122 112 425 123 113 426 114 113 427 86 113 428 115 114 429 124 114 430 87 114 431 115 115 432 116 115 433 125 115 434 124 115 435 116 116 436 117 116 437 126 116 438 125 116 439 117 117 440 118 117 441 127 117 442 126 117 443 118 118 444 119 118 445 128 118 446 127 118 447 119 119 448 120 119 449 129 119 450 128 119 451 120 120 452 121 120 453 130 120 454 129 120 455 121 121 456 122 121 457 131 121 458 130 121 459 122 122 460 123 122 461 132 122 462 131 122 463 132 123 464 123 123 465 86 123 466 124 124 467 133 124 468 87 124 469 124 125 470 125 125 471 134 125 472 133 125 473 125 126 474 126 126 475 135 126 476 134 126 477 126 127 478 127 127 479 136 127 480 135 127 481 127 128 482 128 128 483 137 128 484 136 128 485 128 129 486 129 129 487 138 129 488 137 129 489 129 130 490 130 130 491 139 130 492 138 130 493 130 131 494 131 131 495 140 131 496 139 131 497 131 132 498 132 132 499 141 132 500 140 132 501 141 133 502 132 133 503 86 133 504 133 134 505 142 134 506 87 134 507 133 135 508 134 135 509 143 135 510 142 135 511 134 136 512 135 136 513 144 136 514 143 136 515 135 137 516 136 137 517 145 137 518 144 137 519 136 138 520 137 138 521 146 138 522 145 138 523 137 139 524 138 139 525 147 139 526 146 139 527 138 140 528 139 140 529 148 140 530 147 140 531 139 141 532 140 141 533 149 141 534 148 141 535 140 142 536 141 142 537 150 142 538 149 142 539 150 143 540 141 143 541 86 143 542 142 144 543 151 144 544 87 144 545 142 145 546 143 145 547 152 145 548 151 145 549 143 146 550 144 146 551 153 146 552 152 146 553 144 147 554 145 147 555 154 147 556 153 147 557 145 148 558 146 148 559 155 148 560 154 148 561 146 149 562 147 149 563 156 149 564 155 149 565 147 150 566 148 150 567 0 150 568 156 150 569 148 151 570 149 151 571 157 151 572 0 151 573 149 152 574 150 152 575 158 152 576 157 152 577 158 153 578 150 153 579 86 153 580 151 154 581 159 154 582 87 154 583 151 155 584 152 155 585 160 155 586 159 155 587 152 156 588 153 156 589 161 156 590 160 156 591 153 157 592 154 157 593 162 157 594 161 157 595 154 158 596 155 158 597 163 158 598 162 158 599 155 159 600 156 159 601 164 159 602 163 159 603 156 160 604 0 160 605 165 160 606 164 160 607 0 161 608 157 161 609 166 161 610 165 161 611 157 162 612 158 162 613 167 162 614 166 162 615 167 163 616 158 163 617 86 163 618 159 164 619 168 164 620 87 164 621 159 165 622 160 165 623 169 165 624 168 165 625 160 166 626 161 166 627 170 166 628 169 166 629 161 167 630 162 167 631 171 167 632 170 167 633 162 168 634 163 168 635 172 168 636 171 168 637 163 169 638 164 169 639 173 169 640 172 169 641 164 170 642 165 170 643 174 170 644 173 170 645 165 171 646 166 171 647 175 171 648 174 171 649 166 172 650 167 172 651 176 172 652 175 172 653 176 173 654 167 173 655 86 173 656 168 174 657 177 174 658 87 174 659 168 175 660 169 175 661 178 175 662 177 175 663 169 176 664 170 176 665 179 176 666 178 176 667 170 177 668 171 177 669 180 177 670 179 177 671 171 178 672 172 178 673 181 178 674 180 178 675 172 179 676 173 179 677 182 179 678 181 179 679 173 180 680 174 180 681 183 180 682 182 180 683 174 181 684 175 181 685 184 181 686 183 181 687 175 182 688 176 182 689 185 182 690 184 182 691 185 183 692 176 183 693 86 183 694 177 184 695 186 184 696 87 184 697 177 185 698 178 185 699 187 185 700 186 185 701 178 186 702 179 186 703 188 186 704 187 186 705 179 187 706 180 187 707 189 187 708 188 187 709 180 188 710 181 188 711 190 188 712 189 188 713 181 189 714 182 189 715 191 189 716 190 189 717 182 190 718 183 190 719 192 190 720 191 190 721 183 191 722 184 191 723 193 191 724 192 191 725 184 192 726 185 192 727 194 192 728 193 192 729 194 193 730 185 193 731 86 193 732 186 194 733 195 194 734 87 194 735 186 195 736 187 195 737 196 195 738 195 195 739 187 196 740 188 196 741 197 196 742 196 196 743 188 197 744 189 197 745 198 197 746 197 197 747 189 198 748 190 198 749 199 198 750 198 198 751 190 199 752 191 199 753 200 199 754 199 199 755 191 200 756 192 200 757 201 200 758 200 200 759 192 201 760 193 201 761 202 201 762 201 201 763 193 202 764 194 202 765 203 202 766 202 202 767 203 203 768 194 203 769 86 203 770 195 204 771 204 204 772 87 204 773 195 205 774 196 205 775 205 205 776 204 205 777 196 206 778 197 206 779 206 206 780 205 206 781 197 207 782 198 207 783 207 207 784 206 207 785 198 208 786 199 208 787 208 208 788 207 208 789 199 209 790 200 209 791 209 209 792 208 209 793 200 210 794 201 210 795 210 210 796 209 210 797 201 211 798 202 211 799 211 211 800 210 211 801 202 212 802 203 212 803 212 212 804 211 212 805 212 213 806 203 213 807 86 213 808 204 214 809 213 214 810 87 214 811 204 215 812 205 215 813 214 215 814 213 215 815 205 216 816 206 216 817 215 216 818 214 216 819 206 217 820 207 217 821 216 217 822 215 217 823 207 218 824 208 218 825 217 218 826 216 218 827 208 219 828 209 219 829 218 219 830 217 219 831 209 220 832 210 220 833 219 220 834 218 220 835 210 221 836 211 221 837 220 221 838 219 221 839 211 222 840 212 222 841 221 222 842 220 222 843 221 223 844 212 223 845 86 223 846 213 224 847 222 224 848 87 224 849 213 225 850 214 225 851 223 225 852 222 225 853 214 226 854 215 226 855 224 226 856 223 226 857 215 227 858 216 227 859 225 227 860 224 227 861 216 228 862 217 228 863 226 228 864 225 228 865 217 229 866 218 229 867 227 229 868 226 229 869 218 230 870 219 230 871 228 230 872 227 230 873 219 231 874 220 231 875 229 231 876 228 231 877 220 232 878 221 232 879 230 232 880 229 232 881 230 233 882 221 233 883 86 233 884 222 234 885 231 234 886 87 234 887 222 235 888 223 235 889 232 235 890 231 235 891 223 236 892 224 236 893 233 236 894 232 236 895 224 237 896 225 237 897 234 237 898 233 237 899 225 238 900 226 238 901 235 238 902 234 238 903 226 239 904 227 239 905 236 239 906 235 239 907 227 240 908 228 240 909 237 240 910 236 240 911 228 241 912 229 241 913 238 241 914 237 241 915 229 242 916 230 242 917 239 242 918 238 242 919 239 243 920 230 243 921 86 243 922 231 244 923 240 244 924 87 244 925 231 245 926 232 245 927 241 245 928 240 245 929 232 246 930 233 246 931 242 246 932 241 246 933 233 247 934 234 247 935 243 247 936 242 247 937 234 248 938 235 248 939 244 248 940 243 248 941 235 249 942 236 249 943 245 249 944 244 249 945 236 250 946 237 250 947 246 250 948 245 250 949 237 251 950 238 251 951 247 251 952 246 251 953 238 252 954 239 252 955 248 252 956 247 252 957 248 253 958 239 253 959 86 253 960 240 254 961 249 254 962 87 254 963 240 255 964 241 255 965 250 255 966 249 255 967 241 256 968 242 256 969 251 256 970 250 256 971 242 257 972 243 257 973 252 257 974 251 257 975 243 258 976 244 258 977 253 258 978 252 258 979 244 259 980 245 259 981 254 259 982 253 259 983 245 260 984 246 260 985 255 260 986 254 260 987 246 261 988 247 261 989 256 261 990 255 261 991 247 262 992 248 262 993 257 262 994 256 262 995 257 263 996 248 263 997 86 263 998 249 264 999 88 264 1000 87 264 1001 249 265 1002 250 265 1003 89 265 1004 88 265 1005 250 266 1006 251 266 1007 90 266 1008 89 266 1009 251 267 1010 252 267 1011 91 267 1012 90 267 1013 252 268 1014 253 268 1015 92 268 1016 91 268 1017 253 269 1018 254 269 1019 93 269 1020 92 269 1021 254 270 1022 255 270 1023 94 270 1024 93 270 1025 255 271 1026 256 271 1027 95 271 1028 94 271 1029 256 272 1030 257 272 1031 96 272 1032 95 272 1033 96 273 1034 257 273 1035 86 273 1036</p>
        </polylist>
      </mesh>
    </geometry>
    <geometry id="6245f922-8631-9c8f-500e-034ba0c0180b-mesh" name="circle">
      <mesh>
        <source id="6245f922-8631-9c8f-500e-034ba0c0180b-mesh-positions">
          <float_array id="6245f922-8631-9c8f-500e-034ba0c0180b-mesh-positions-array" count="237">0 0 0.092176 2.591855 0 0.092176 2.33518 0 0.779268 1.615995 0 1.330272 0.576742 0 1.636057 2.575789 0 -1.185933 0.576742 -1.8125 1.636057 1.615995 -1.8125 1.330272 2.33518 -1.8125 0.779268 2.591855 -1.8125 0.092176 2.575789 -1.8125 -1.185933 0.576742 -0.5625 1.8125 1.681329 -0.5625 1.4674 0.642077 -0.5625 1.773185 2.482207 -0.5625 0.894459 1.763021 -0.5625 1.445464 2.792153 -0.5625 0.180517 2.535478 -0.5625 0.867608 2.575789 3.4375 -1.185933 3.450789 0 -1.185933 3.450789 3.4375 -1.185933 2.641235 -0.425648 0.631659 2.445074 0.050648 0.540188 2.233765 0.050648 0.993341 2.429926 -0.425648 1.084813 1.889218 -0.425648 1.371166 1.757458 0.050648 1.199453 1.360782 0.050648 1.503834 1.492542 -0.425648 1.675547 0.831991 -0.425648 1.789828 0.775972 0.050648 1.580763 0.349028 -0.425648 1.919237 0.293009 0.050648 1.710173 3.125 0.0625 -0.75 3.125 3.6875 -0.75 5.625 0.0625 -0.75 5.625 3.6875 -0.75 0.625 0.0625 -0.75 0.625 3.6875 -0.75 3.125 0.0625 -0.75 3.125 3.6875 -0.75 -2.591855 0 0.092176 -2.33518 0 0.779268 -1.615995 0 1.330272 -0.576742 0 1.636057 -2.575789 0 -1.185933 -0.576742 -1.8125 1.636057 -1.615995 -1.8125 1.330272 -2.33518 -1.8125 0.779268 -2.591855 -1.8125 0.092176 -2.575789 -1.8125 -1.185933 -0.576742 -0.5625 1.8125 -1.681329 -0.5625 1.4674 -0.642077 -0.5625 1.773185 -2.482207 -0.5625 0.894459 -1.763021 -0.5625 1.445464 -2.792152 -0.5625 0.180517 -2.535478 -0.5625 0.867608 -2.575789 3.4375 -1.185933 -3.450789 0 -1.185933 -3.450789 3.4375 -1.185933 -2.641235 -0.425648 0.631659 -2.445074 0.050648 0.540188 -2.233765 0.050648 0.993341 -2.429926 -0.425648 1.084813 -1.889218 -0.425648 1.371166 -1.757458 0.050648 1.199453 -1.360782 0.050648 1.503834 -1.492542 -0.425648 1.675547 -0.831991 -0.425648 1.789828 -0.775972 0.050648 1.580763 -0.349028 -0.425648 1.919237 -0.293009 0.050648 1.710173 -3.125 0.0625 -0.75 -3.125 3.6875 -0.75 -5.625 0.0625 -0.75 -5.625 3.6875 -0.75 -0.625 0.0625 -0.75 -0.625 3.6875 -0.75</float_array>
          <technique_common>
            <accessor source="#6245f922-8631-9c8f-500e-034ba0c0180b-mesh-positions-array" count="79" stride="3">
              <param name="X" type="float"/>
              <param name="Y" type="float"/>
              <param name="Z" type="float"/>
            </accessor>
          </technique_common>
        </source>
        <source id="6245f922-8631-9c8f-500e-034ba0c0180b-mesh-normals">
          <float_array id="6245f922-8631-9c8f-500e-034ba0c0180b-mesh-normals-array" count="111">0 1 0 0 0 1 0 0.299298 0.95416 0 1 0 0 1 0 0 1 0 0.28227 0 0.959335 0.608174 0 0.793804 0.93677 0 0.349946 0.999921 0 -0.012568 0.27274 0.257653 0.926946 0.578982 0.306091 0.755703 0.87318 0.362155 0.326191 0 1 0 0 0 1 0 0 1 0.82511 0.41371 0.384756 0.554222 0.41371 0.722276 0.235631 0.41371 0.879387 0 0 1 0 0 1 0 1 0 0 1 0 0 1 0 -0.28227 0 0.959335 -0.608174 0 0.793804 -0.93677 0 0.349946 -0.999921 0 -0.012568 -0.27274 0.257653 0.926946 -0.578982 0.306091 0.755703 -0.87318 0.362155 0.326191 0 0 1 -0.82511 0.41371 0.384756 -0.554222 0.41371 0.722276 -0.235631 0.41371 0.879387 0 0 1 0 0 1</float_array>
          <technique_common>
            <accessor source="#6245f922-8631-9c8f-500e-034ba0c0180b-mesh-normals-array" count="37" stride="3">
              <param name="X" type="float"/>
              <param name="Y" type="float"/>
              <param name="Z" type="float"/>
            </accessor>
          </technique_common>
        </source>
        <source id="6245f922-8631-9c8f-500e-034ba0c0180b-mesh-map-0">
          <float_array id="6245f922-8631-9c8f-500e-034ba0c0180b-mesh-map-0-array" count="282">0.695493 0.638948 0.806345 0.638948 0.750919 0.836476 0.484375 1 0.484375 0.630859 0.5 0.630859 0.5 1 0.31526 0.161194 0.40397 0.161196 0.404121 0.004494 0.315407 0.004494 0.975333 0.748567 1 0.836476 0.750919 0.836476 0.906218 0.678071 0.975333 0.748567 0.750919 0.836476 0.806345 0.638948 0.906218 0.678071 0.750919 0.836476 0.5 0.630859 0.484375 0.630859 0.484375 1 0.5 1 0.5 0.630859 0.484375 0.630859 0.484375 1 0.5 1 0.5 0.630859 0.484375 0.630859 0.484375 1 0.5 1 0.5 0.630859 0.484375 0.630859 0.484375 1 0.5 1 0.404186 0.162298 0.404188 0.004174 0.314409 0.003906 0.314409 0.162037 0.404186 0.162298 0.404188 0.004174 0.314409 0.003906 0.314409 0.162037 0.404186 0.162298 0.404188 0.004174 0.314409 0.003906 0.314409 0.162037 0.998456 1 0.503382 1 0.501838 0.836476 1 0.836476 0.314453 0.75091 0 0.75091 0 0.208075 0.314453 0.208075 0.314453 0.75091 0.314453 0.882625 0 0.882625 0 0.75091 0.474609 0.886719 0.474609 0.994141 0.367188 0.994141 0.367188 0.886719 0.363281 0.888672 0.363281 0.996094 0.255859 0.996094 0.255859 0.888672 0.480469 0.648438 0.480469 0.755859 0.373047 0.755859 0.373047 0.648438 0.546875 0.630664 0.546875 0.365039 0.976562 0.365039 0.976562 0.630664 0.546875 0.365039 0.546875 0.630664 0.976562 0.630664 0.976562 0.365039 0.501838 0.836476 0.526504 0.748567 0.750919 0.836476 0.526504 0.748567 0.595619 0.678071 0.750919 0.836476 0.595619 0.678071 0.695493 0.638948 0.750919 0.836476 0.484375 1 0.484375 0.630859 0.5 0.630859 0.5 1 0.484375 1 0.484375 0.630859 0.5 0.630859 0.5 1 0.484375 1 0.484375 0.630859 0.5 0.630859 0.5 1 0.484375 1 0.484375 0.630859 0.5 0.630859 0.5 1 0.314409 0.003906 0.404188 0.004174 0.404186 0.162298 0.314409 0.162037 0.314409 0.003906 0.404188 0.004174 0.404186 0.162298 0.314409 0.162037 0.314409 0.003906 0.404188 0.004174 0.404186 0.162298 0.314409 0.162037 0 0.882625 0.314453 0.882625 0.314453 0.75091 0 0.75091 0.367188 0.994141 0.474609 0.994141 0.474609 0.886719 0.367188 0.886719 0.255859 0.996094 0.363281 0.996094 0.363281 0.888672 0.255859 0.888672 0.373047 0.755859 0.480469 0.755859 0.480469 0.648438 0.373047 0.648438 0.976562 0.365039 0.546875 0.365039 0.546875 0.630664 0.976562 0.630664 0.976562 0.630664 0.546875 0.630664 0.546875 0.365039 0.976562 0.365039</float_array>
          <technique_common>
            <accessor source="#6245f922-8631-9c8f-500e-034ba0c0180b-mesh-map-0-array" count="141" stride="2">
              <param name="S" type="float"/>
              <param name="T" type="float"/>
            </accessor>
          </technique_common>
        </source>
        <vertices id="6245f922-8631-9c8f-500e-034ba0c0180b-mesh-vertices">
          <input semantic="POSITION" source="#6245f922-8631-9c8f-500e-034ba0c0180b-mesh-positions"/>
        </vertices>
        <polylist material="Material_0-material" count="6">
          <input semantic="VERTEX" source="#6245f922-8631-9c8f-500e-034ba0c0180b-mesh-vertices" offset="0"/>
          <input semantic="NORMAL" source="#6245f922-8631-9c8f-500e-034ba0c0180b-mesh-normals" offset="1"/>
          <input semantic="TEXCOORD" source="#6245f922-8631-9c8f-500e-034ba0c0180b-mesh-map-0" offset="2" set="0"/>
          <vcount>3 4 4 3 3 3 4 4 4 4 4 4 4 4 4 4 4 4 4 4 4 3 3 3 4 4 4 4 4 4 4 4 4 4 4 4 4</vcount>
          <p>44 0 0 4 0 1 0 0 2 44 1 3 46 1 4 6 1 5 4 1 6 44 2 7 51 2 8 11 2 9 4 2 10 2 3 11 1 3 12 0 3 13 3 4 14 2 4 15 0 4 16 4 5 17 3 5 18 0 5 19 6 6 20 7 6 21 3 6 22 4 6 23 7 7 24 8 7 25 2 7 26 3 7 27 8 8 28 9 8 29 1 8 30 2 8 31 9 9 32 10 9 33 5 9 34 1 9 35 13 10 36 12 10 37 3 10 38 4 10 39 15 11 40 14 11 41 2 11 42 3 11 43 17 12 44 16 12 45 1 12 46 2 12 47 5 13 48 45 13 49 41 13 50 1 13 51 5 14 52 18 14 53 58 14 54 45 14 55 5 15 56 19 15 57 20 15 58 18 15 59 21 16 60 22 16 61 23 16 62 24 16 63 25 17 64 26 17 65 27 17 66 28 17 67 29 18 68 30 18 69 32 18 70 31 18 71 36 19 72 34 19 73 33 19 74 35 19 75 40 20 76 38 20 77 37 20 78 39 20 79 41 21 80 42 21 81 0 21 82 42 22 83 43 22 84 0 22 85 43 23 86 44 23 87 0 23 88 43 24 89 47 24 90 46 24 91 44 24 92 42 25 93 48 25 94 47 25 95 43 25 96 41 26 97 49 26 98 48 26 99 42 26 100 45 27 101 50 27 102 49 27 103 41 27 104 43 28 105 52 28 106 53 28 107 44 28 108 42 29 109 54 29 110 55 29 111 43 29 112 41 30 113 56 30 114 57 30 115 42 30 116 60 31 117 59 31 118 45 31 119 58 31 120 63 32 121 62 32 122 61 32 123 64 32 124 67 33 125 66 33 126 65 33 127 68 33 128 72 34 129 70 34 130 69 34 131 71 34 132 73 35 133 74 35 134 76 35 135 75 35 136 77 36 137 78 36 138 74 36 139 73 36 140</p>
        </polylist>
      </mesh>
    </geometry>
  </library_geometries>
  <library_visual_scenes>
    <visual_scene id="Scene" name="Scene">
      <node id="380c6fb9-71c8-2983-68ed-3ece989eda72" name="Mic" type="NODE">
        <scale sid="scale">1 1 1</scale>
        <translate sid="location">0 0.375 0.5</translate>
        <rotate sid="rotationZ">0 0 1 0</rotate>
        <rotate sid="rotationY">0 1 0 0</rotate>
        <rotate sid="rotationX">1 0 0 0</rotate>
        <node id="1b5031d8-912d-1153-4e3e-fefb958e6da4" name="Mic" type="NODE">
          <scale sid="scale">1 1 1</scale>
          <translate sid="location">0 0 0</translate>
          <rotate sid="rotationX">1 0 0 0</rotate>
          <rotate sid="rotationY">0 1 0 0</rotate>
          <rotate sid="rotationZ">0 0 1 -79</rotate>
          <instance_geometry url="#1b5031d8-912d-1153-4e3e-fefb958e6da4-mesh" name="Mic">
            <bind_material>
              <technique_common>
                <instance_material symbol="Material_0-material" target="#Material_0-material">
                  <bind_vertex_input semantic="UVMap" input_semantic="TEXCOORD" input_set="0"/>
                </instance_material>
              </technique_common>
            </bind_material>
          </instance_geometry>
        </node>
      </node>
      <node id="15d3fd68-2681-fe49-08fa-a6673a22c3e1" name="Logo" type="NODE">
        <scale sid="scale">1 1 1</scale>
        <translate sid="location">0 1.625 0.0625</translate>
        <rotate sid="rotationZ">0 0 1 0</rotate>
        <rotate sid="rotationY">0 1 0 0</rotate>
        <rotate sid="rotationX">1 0 0 0</rotate>
        <node id="89ed7e7f-7887-441a-8aae-d1cbc7a66eb1" name="Logo" type="NODE">
          <scale sid="scale">1 1 1</scale>
          <translate sid="location">0 0 0.1875</translate>
          <rotate sid="rotationX">1 0 0 0</rotate>
          <rotate sid="rotationY">0 1 0 0</rotate>
          <rotate sid="rotationZ">0 0 1 0</rotate>
          <instance_geometry url="#89ed7e7f-7887-441a-8aae-d1cbc7a66eb1-mesh" name="Logo">
            <bind_material>
              <technique_common>
                <instance_material symbol="Material_0-material" target="#Material_0-material">
                  <bind_vertex_input semantic="UVMap" input_semantic="TEXCOORD" input_set="0"/>
                </instance_material>
              </technique_common>
            </bind_material>
          </instance_geometry>
        </node>
      </node>
      <node id="6245f922-8631-9c8f-500e-034ba0c0180b" name="circle" type="NODE">
        <scale sid="scale">1 1 1</scale>
        <translate sid="location">0 0 0</translate>
        <rotate sid="rotationX">1 0 0 0</rotate>
        <rotate sid="rotationY">0 1 0 0</rotate>
        <rotate sid="rotationZ">0 0 1 0</rotate>
        <instance_geometry url="#6245f922-8631-9c8f-500e-034ba0c0180b-mesh" name="circle">
          <bind_material>
            <technique_common>
              <instance_material symbol="Material_0-material" target="#Material_0-material">
                <bind_vertex_input semantic="UVMap" input_semantic="TEXCOORD" input_set="0"/>
              </instance_material>
            </technique_common>
          </bind_material>
        </instance_geometry>
      </node>
    </visual_scene>
  </library_visual_scenes>
  <scene>
    <instance_visual_scene url="#Scene"/>
  </scene>
  <library_animations>
    <animation id="animation-15d3fd68-2681-fe49-08fa-a6673a22c3e1" name="15d3fd68-2681-fe49-08fa-a6673a22c3e1">
      <animation id="Logo_scale" name="Logo_scale">
        <source id="Logo_scale-input">
          <float_array id="Logo_scale-input-array" count="5">0 0.5 1 1.01 5.01</float_array>
          <technique_common>
            <accessor source="#Logo_scale-input-array" count="5" stride="1">
              <param name="TIME" type="float"/>
            </accessor>
          </technique_common>
        </source>
        <source id="Logo_scale-output">
          <float_array id="Logo_scale-output-array" count="15">1.2 1.2 1 1 1 1 1 1 1 1 1 1 1 1 1</float_array>
          <technique_common>
            <accessor source="#Logo_scale-output-array" count="15" stride="3">
              <param name="X" type="float"/>
              <param name="Y" type="float"/>
              <param name="Z" type="float"/>
            </accessor>
          </technique_common>
        </source>
        <sampler id="Logo_scale-sampler">
          <input semantic="INPUT" source="#Logo_scale-input"/>
          <input semantic="OUTPUT" source="#Logo_scale-output"/>
        </sampler>
        <channel source="#Logo_scale-sampler" target="15d3fd68-2681-fe49-08fa-a6673a22c3e1/scale"/>
      </animation>
    </animation>
    <animation id="animation-380c6fb9-71c8-2983-68ed-3ece989eda72" name="380c6fb9-71c8-2983-68ed-3ece989eda72">
      <animation id="Mic_rotation_euler" name="Mic_rotation_euler">
        <source id="Mic_rotation_euler-input">
          <float_array id="Mic_rotation_euler-input-array" count="5">0 1 1.01 5.01 5.01</float_array>
          <technique_common>
            <accessor source="#Mic_rotation_euler-input-array" count="5" stride="1">
              <param name="TIME" type="float"/>
            </accessor>
          </technique_common>
        </source>
        <source id="Mic_rotation_euler_X-output">
          <float_array id="Mic_rotation_euler_X-output-array" count="5">0 0 0 0 0</float_array>
          <technique_common>
            <accessor source="#Mic_rotation_euler_X-output-array" count="5" stride="1">
              <param name="ANGLE" type="float"/>
            </accessor>
          </technique_common>
        </source>
        <sampler id="Mic_rotation_euler_X-sampler">
          <input semantic="INPUT" source="#Mic_rotation_euler-input"/>
          <input semantic="OUTPUT" source="#Mic_rotation_euler_X-output"/>
        </sampler>
        <channel source="#Mic_rotation_euler_X-sampler" target="380c6fb9-71c8-2983-68ed-3ece989eda72/rotationX.ANGLE"/>
        <source id="Mic_rotation_euler_Y-output">
          <float_array id="Mic_rotation_euler_Y-output-array" count="5">0 0 0 -360 -360</float_array>
          <technique_common>
            <accessor source="#Mic_rotation_euler_Y-output-array" count="5" stride="1">
              <param name="ANGLE" type="float"/>
            </accessor>
          </technique_common>
        </source>
        <sampler id="Mic_rotation_euler_Y-sampler">
          <input semantic="INPUT" source="#Mic_rotation_euler-input"/>
          <input semantic="OUTPUT" source="#Mic_rotation_euler_Y-output"/>
        </sampler>
        <channel source="#Mic_rotation_euler_Y-sampler" target="380c6fb9-71c8-2983-68ed-3ece989eda72/rotationY.ANGLE"/>
        <source id="Mic_rotation_euler_Z-output">
          <float_array id="Mic_rotation_euler_Z-output-array" count="5">0 0 0 0 0</float_array>
          <technique_common>
            <accessor source="#Mic_rotation_euler_Z-output-array" count="5" stride="1">
              <param name="ANGLE" type="float"/>
            </accessor>
          </technique_common>
        </source>
        <sampler id="Mic_rotation_euler_Z-sampler">
          <input semantic="INPUT" source="#Mic_rotation_euler-input"/>
          <input semantic="OUTPUT" source="#Mic_rotation_euler_Z-output"/>
        </sampler>
        <channel source="#Mic_rotation_euler_Z-sampler" target="380c6fb9-71c8-2983-68ed-3ece989eda72/rotationZ.ANGLE"/>
      </animation>
    </animation>
  </library_animations>
  <library_animation_clips>
    <animation_clip id="Logo" name="Logo" start="0" end="1"/>
    <animation_clip id="Mic" name="Mic" start="1.01" end="5.01"/>
  </library_animation_clips>
</COLLADA>
